<?xml version="1.0" standalone="no"?>
<!DOCTYPE svg PUBLIC "-//W3C//DTD SVG 20010904//EN"
 "http://www.w3.org/TR/2001/REC-SVG-20010904/DTD/svg10.dtd">
<svg version="1.0" xmlns="http://www.w3.org/2000/svg"
 width="736.000000pt" height="1308.000000pt" viewBox="0 0 736.000000 1308.000000"
 preserveAspectRatio="xMidYMid meet">

<g transform="translate(0.000000,1308.000000) scale(0.100000,-0.100000)"
fill="#000000" stroke="none">
<path d="M180 13070 c0 -5 23 -10 50 -10 39 0 50 -3 50 -16 0 -9 9 -18 20 -21
13 -3 20 -12 18 -22 -3 -14 -23 -16 -136 -19 -106 -2 -134 -6 -138 -17 -4 -8
-15 -15 -25 -15 -10 0 -19 -7 -19 -15 0 -8 9 -15 19 -15 10 0 21 -7 25 -15 4
-11 32 -15 138 -17 117 -3 133 -5 136 -21 2 -10 -4 -20 -15 -24 -10 -3 -22
-12 -26 -20 -5 -8 -26 -13 -52 -13 -33 0 -45 -4 -45 -14 0 -9 9 -14 23 -14 52
3 77 -2 77 -17 0 -8 6 -15 14 -15 15 0 28 -24 19 -34 -4 -3 -66 -6 -140 -6
-112 0 -133 -2 -133 -15 0 -8 -9 -15 -20 -15 -11 0 -20 -7 -20 -15 0 -8 7 -15
15 -15 7 0 18 -6 22 -14 6 -11 42 -16 141 -22 119 -6 132 -9 132 -25 0 -11 -6
-19 -14 -19 -8 0 -16 -7 -20 -15 -4 -10 -20 -15 -51 -15 -33 0 -45 -4 -45 -15
0 -11 12 -15 50 -15 36 0 50 -4 50 -14 0 -8 7 -17 16 -20 8 -3 14 -13 12 -22
-3 -14 -21 -16 -135 -15 -117 2 -133 0 -133 -14 0 -9 -9 -19 -20 -22 -11 -3
-20 -11 -20 -19 0 -8 6 -11 16 -7 10 4 17 -1 21 -16 5 -20 11 -21 139 -21 127
0 134 -1 134 -20 0 -11 -5 -20 -11 -20 -7 0 -18 -8 -25 -17 -13 -19 -15 -20
-69 -22 -54 -2 -41 -21 14 -21 40 0 50 -3 54 -20 3 -11 13 -20 22 -20 10 0 15
-6 13 -17 -3 -16 -19 -18 -141 -21 -113 -2 -137 -5 -137 -17 0 -8 -7 -15 -15
-15 -8 0 -15 -7 -15 -15 0 -8 7 -15 15 -15 8 0 15 -7 15 -15 0 -12 19 -15 103
-16 171 -2 171 -2 175 -22 3 -12 -4 -20 -17 -24 -12 -3 -21 -12 -21 -19 0 -10
-14 -14 -50 -14 -38 0 -50 -4 -50 -15 0 -9 6 -15 13 -14 42 5 87 -2 87 -15 0
-7 9 -16 20 -19 13 -3 18 -10 14 -21 -5 -14 -27 -16 -140 -16 -110 0 -134 -3
-134 -15 0 -7 -7 -18 -16 -23 -14 -8 -13 -12 9 -35 24 -26 27 -27 151 -27 119
0 126 -1 126 -20 0 -11 -7 -20 -15 -20 -8 0 -15 -7 -15 -15 0 -10 -11 -15 -32
-16 -18 -1 -41 -2 -50 -3 -38 -2 -16 -21 28 -24 36 -2 47 -8 51 -23 3 -10 12
-19 20 -19 8 0 13 -7 11 -17 -3 -16 -19 -18 -131 -21 -111 -2 -130 -5 -147
-22 -25 -25 -25 -25 0 -50 17 -17 35 -19 145 -21 141 -1 158 -10 111 -54 -20
-19 -38 -25 -72 -25 -24 0 -44 -4 -44 -10 0 -5 3 -10 8 -11 61 -6 88 -13 95
-25 4 -7 15 -14 22 -14 8 0 15 -9 15 -20 0 -19 -7 -20 -130 -20 -117 0 -132
-2 -150 -20 -21 -21 -26 -40 -11 -40 5 0 12 -9 16 -20 6 -18 17 -20 137 -22
98 -2 132 -6 136 -16 2 -7 -5 -16 -17 -19 -12 -3 -21 -11 -21 -19 0 -8 -16
-14 -47 -16 -66 -4 -70 -28 -4 -28 40 0 51 -3 51 -16 0 -9 9 -18 20 -21 11 -3
20 -9 20 -14 0 -20 -39 -25 -149 -21 l-117 4 -17 -26 c-16 -24 -16 -28 -1 -51
16 -25 19 -25 144 -25 107 0 129 -3 134 -16 8 -22 8 -24 -9 -24 -8 0 -19 -9
-25 -20 -8 -15 -21 -20 -55 -20 -25 0 -45 -4 -45 -10 0 -5 21 -10 46 -10 37 0
47 -4 51 -20 3 -11 12 -20 19 -20 8 0 14 -9 14 -20 0 -19 -7 -20 -133 -20
-130 0 -134 -1 -146 -24 -10 -19 -10 -27 0 -44 11 -18 27 -21 146 -27 121 -6
133 -9 133 -26 0 -10 -6 -19 -14 -19 -8 0 -16 -6 -19 -14 -4 -10 -24 -16 -54
-18 -59 -4 -59 -22 -1 -26 28 -2 50 -11 66 -27 41 -42 27 -47 -112 -46 -113 2
-130 0 -142 -16 -16 -21 -18 -53 -4 -53 6 0 10 -7 10 -15 0 -13 22 -15 135
-15 128 0 135 -1 135 -20 0 -11 -7 -20 -15 -20 -7 0 -18 -6 -22 -14 -5 -8 -27
-16 -52 -18 -64 -4 -67 -28 -3 -28 41 0 51 -3 55 -20 3 -11 13 -20 22 -20 10
0 15 -6 13 -17 -3 -16 -19 -18 -140 -21 -132 -2 -136 -3 -142 -25 -3 -12 -3
-32 0 -44 5 -20 13 -21 132 -25 70 -1 132 -7 139 -11 15 -10 6 -37 -13 -37 -8
0 -14 -7 -14 -15 0 -11 -12 -15 -50 -15 -38 0 -50 -4 -50 -15 0 -11 12 -15 50
-15 36 0 50 -4 50 -14 0 -8 7 -16 15 -20 8 -3 15 -12 15 -21 0 -13 -20 -15
-134 -15 l-134 0 -7 -29 c-3 -17 -1 -39 5 -50 10 -20 20 -21 140 -21 123 0
130 -1 130 -20 0 -11 -7 -20 -15 -20 -8 0 -15 -7 -15 -14 0 -11 -15 -16 -52
-18 -63 -4 -70 -22 -10 -26 49 -4 98 -41 88 -67 -5 -14 -23 -16 -131 -12 -140
4 -145 2 -145 -62 l0 -30 137 -3 c122 -3 138 -5 141 -20 2 -12 -3 -18 -13 -18
-9 0 -19 -9 -22 -20 -4 -17 -14 -20 -54 -20 -62 0 -64 -17 -3 -26 48 -7 101
-45 89 -63 -4 -7 -57 -11 -141 -11 l-134 0 0 -44 c0 -26 5 -46 13 -49 7 -2 66
-5 132 -6 66 -1 124 -6 129 -11 11 -11 -1 -30 -20 -30 -8 0 -14 -7 -14 -15 0
-11 -12 -15 -50 -15 -38 0 -50 -4 -50 -15 0 -11 12 -15 45 -15 31 0 47 -5 51
-15 4 -8 12 -15 19 -15 18 0 27 -28 12 -37 -6 -4 -69 -6 -139 -4 l-128 2 0
-50 0 -51 135 0 c128 0 135 -1 135 -20 0 -11 -6 -20 -14 -20 -8 0 -16 -7 -19
-15 -4 -8 -26 -17 -57 -21 -59 -8 -67 -24 -11 -24 49 0 71 -8 71 -26 0 -8 7
-14 15 -14 8 0 15 -9 15 -20 0 -19 -7 -20 -135 -20 l-135 0 0 -45 0 -44 132
-3 c119 -3 133 -5 136 -21 3 -12 -4 -20 -17 -24 -12 -3 -21 -12 -21 -19 0 -10
-14 -14 -51 -14 -63 0 -64 -23 -1 -28 27 -2 51 -12 67 -26 45 -42 35 -46 -110
-46 l-135 0 0 -50 0 -49 132 -3 c98 -2 132 -6 136 -16 2 -7 -5 -16 -17 -19
-12 -3 -21 -11 -21 -18 0 -14 -31 -25 -72 -25 -16 0 -28 -4 -28 -10 0 -5 18
-10 41 -10 32 0 47 -6 71 -31 46 -46 30 -52 -116 -47 l-126 4 0 -48 0 -47 128
-3 c113 -3 127 -5 127 -20 0 -10 -4 -18 -10 -17 -5 0 -12 -9 -17 -20 -6 -17
-16 -21 -53 -21 -25 0 -45 -4 -45 -10 0 -5 8 -10 18 -11 9 -1 24 -2 32 -3 8
-2 23 -3 33 -4 9 -1 17 -9 17 -17 0 -8 7 -15 15 -15 8 0 15 -9 15 -20 0 -19
-7 -20 -130 -20 l-130 0 0 -50 0 -50 130 0 c123 0 130 -1 130 -20 0 -11 -6
-20 -14 -20 -8 0 -16 -6 -19 -14 -4 -10 -24 -16 -54 -18 -62 -4 -62 -22 0 -26
31 -2 47 -8 47 -16 0 -8 9 -16 21 -19 13 -4 19 -12 17 -24 -3 -16 -15 -18
-131 -16 l-127 2 0 -50 0 -49 124 0 c73 0 127 -4 131 -10 4 -6 -6 -23 -22 -38
-21 -22 -38 -29 -68 -29 -21 0 -41 -5 -43 -11 -2 -8 12 -12 43 -12 38 0 48 -4
52 -19 3 -11 14 -22 25 -24 11 -3 18 -12 16 -19 -4 -10 -37 -14 -131 -16
l-127 -3 0 -44 0 -45 94 0 c51 0 108 -3 125 -6 32 -7 42 -30 16 -40 -8 -4 -15
-12 -15 -20 0 -10 -14 -14 -50 -14 -35 0 -50 -4 -50 -13 0 -9 15 -14 43 -15
24 -1 47 -8 53 -17 6 -8 16 -15 23 -15 6 0 11 -9 11 -20 0 -19 -7 -20 -125
-20 l-125 0 0 -50 0 -49 122 -3 c108 -3 123 -5 126 -20 2 -11 -3 -18 -11 -18
-8 0 -17 -6 -20 -14 -4 -10 -23 -16 -53 -18 -68 -4 -71 -28 -4 -28 43 0 53 -3
57 -20 3 -11 12 -20 20 -20 8 0 13 -7 11 -17 -3 -16 -16 -18 -126 -16 l-122 2
0 -49 0 -49 122 -3 c110 -3 123 -5 126 -21 3 -12 -4 -20 -17 -24 -12 -3 -21
-12 -21 -19 0 -10 -14 -14 -50 -14 -27 0 -50 -4 -50 -10 0 -9 12 -11 75 -14
11 -1 21 -9 23 -18 2 -9 12 -18 23 -21 10 -3 19 -12 19 -21 0 -14 -17 -16
-125 -16 l-125 0 0 -50 0 -50 119 0 c99 0 120 -3 125 -16 4 -11 -1 -18 -14
-21 -11 -3 -20 -12 -20 -19 0 -10 -14 -14 -50 -14 -38 0 -50 -4 -50 -15 0 -11
12 -15 49 -15 41 0 50 -3 54 -21 3 -13 10 -18 17 -14 8 5 11 -1 8 -16 -3 -24
-5 -24 -121 -24 l-117 0 0 -47 0 -48 120 0 c132 0 143 -6 95 -55 -20 -19 -36
-25 -70 -25 -25 0 -45 -4 -45 -10 0 -5 15 -10 33 -10 47 0 77 -10 77 -26 0 -8
7 -14 15 -14 8 0 15 -9 15 -20 0 -19 -7 -20 -120 -20 l-120 0 0 -45 0 -45 85
-1 c47 -1 90 -3 95 -4 6 -1 21 -3 35 -4 32 -1 32 -17 -1 -47 -19 -18 -37 -24
-70 -24 -62 0 -54 -24 9 -28 31 -2 47 -8 47 -16 0 -8 9 -16 20 -19 22 -6 28
-37 8 -38 -7 0 -61 0 -120 1 l-108 1 0 -50 0 -50 117 -3 c85 -2 118 -7 121
-16 2 -7 -5 -16 -17 -19 -12 -3 -21 -12 -21 -19 0 -9 -12 -15 -32 -16 -18 0
-39 -2 -47 -2 -8 -1 -16 -7 -19 -14 -2 -8 9 -12 39 -12 32 0 47 -6 65 -26 45
-48 36 -54 -91 -54 l-115 0 0 -45 0 -45 98 -1 c53 -1 103 -1 110 0 15 2 34
-46 27 -68 -4 -14 -21 -16 -120 -13 l-115 3 0 -40 0 -39 112 -1 c62 -1 116 -5
121 -10 14 -14 -2 -51 -19 -44 -8 3 -14 -1 -14 -11 0 -9 -4 -17 -10 -17 -5 -1
-14 -3 -20 -4 -5 -1 -17 -3 -25 -4 -8 0 -15 -6 -15 -12 0 -5 8 -9 18 -8 36 3
52 -1 52 -16 0 -8 6 -15 14 -15 14 0 34 -40 25 -49 -2 -2 -57 -3 -121 -3
l-118 1 0 -42 0 -42 102 3 c124 4 148 -1 141 -28 -3 -11 -11 -20 -19 -20 -7 0
-18 -9 -24 -20 -6 -11 -15 -18 -20 -15 -13 8 -80 -5 -80 -16 0 -5 8 -8 17 -7
48 4 83 -3 83 -16 0 -7 9 -16 19 -19 12 -3 19 -12 17 -23 -3 -17 -15 -19 -119
-22 l-117 -3 0 -43 0 -43 118 -1 c111 0 117 -2 120 -21 3 -15 -2 -21 -16 -21
-11 0 -22 -9 -25 -20 -4 -16 -14 -20 -51 -20 -25 0 -46 -5 -46 -10 0 -6 6 -10
12 -9 45 5 88 -2 88 -16 0 -8 6 -15 14 -15 16 0 29 -27 20 -41 -3 -5 -57 -9
-120 -9 l-114 0 0 -45 0 -46 118 3 117 3 3 -28 c3 -21 -1 -27 -16 -27 -11 0
-22 -7 -26 -15 -4 -10 -20 -15 -51 -15 -25 0 -45 -4 -45 -10 0 -5 23 -10 50
-10 38 0 50 -4 50 -15 0 -8 6 -15 14 -15 19 0 27 -26 16 -52 -5 -13 -9 -17 -9
-10 -1 9 -30 12 -111 12 l-110 0 0 -46 c0 -43 1 -45 28 -44 15 1 69 2 120 1
91 -1 92 -1 92 -26 0 -18 -5 -25 -20 -25 -11 0 -20 -7 -20 -15 0 -14 -43 -21
-87 -16 -7 1 -13 -3 -13 -9 0 -5 22 -10 50 -10 36 0 50 -4 50 -14 0 -7 9 -16
19 -19 14 -3 18 -11 14 -26 -5 -20 -12 -21 -119 -21 l-114 0 0 -45 0 -45 114
0 c95 0 115 -3 120 -16 8 -20 -1 -34 -20 -34 -8 0 -14 -7 -14 -15 0 -14 -43
-21 -88 -16 -6 1 -12 -3 -12 -9 0 -5 20 -10 45 -10 34 0 47 -5 55 -20 6 -11
19 -19 28 -18 12 2 16 -3 14 -17 -2 -11 -5 -22 -7 -24 -2 -1 -56 -2 -119 -2
l-116 2 0 -45 0 -45 118 -3 c113 -3 117 -4 120 -25 3 -18 -2 -23 -17 -23 -12
0 -21 -6 -21 -15 0 -14 -43 -21 -88 -16 -6 1 -12 -3 -12 -9 0 -5 22 -10 50
-10 44 0 50 -2 50 -21 0 -15 4 -19 16 -15 24 9 34 -2 23 -27 -10 -22 -15 -23
-125 -22 l-114 0 0 -45 0 -45 117 0 c106 0 118 -2 121 -18 3 -12 -4 -20 -17
-24 -12 -3 -21 -12 -21 -19 0 -14 -3 -16 -57 -18 -41 -3 -56 -16 -20 -17 15
-1 37 -2 49 -3 13 0 24 -9 26 -19 2 -11 9 -16 18 -13 8 3 14 1 14 -5 0 -6 4
-8 9 -5 5 4 7 -3 4 -13 -6 -23 -23 -27 -145 -26 l-98 0 0 -42 c0 -49 -16 -44
154 -47 72 -1 80 -3 87 -24 8 -21 2 -27 -23 -23 -4 0 -12 -8 -18 -19 -8 -15
-21 -20 -55 -20 -25 0 -45 -4 -45 -10 0 -5 8 -9 17 -8 48 4 83 -3 83 -16 0 -7
9 -16 21 -19 13 -4 19 -12 17 -24 -4 -20 -9 -21 -150 -22 l-88 -1 0 -45 0 -45
114 0 c95 0 115 -3 120 -16 8 -21 -1 -35 -18 -28 -8 3 -16 -4 -19 -15 -4 -17
-13 -21 -51 -21 -25 0 -46 -4 -46 -10 0 -5 8 -9 17 -8 50 4 83 -3 83 -17 0 -8
9 -15 20 -15 21 0 24 -8 14 -34 -5 -13 -25 -16 -120 -16 l-114 0 0 -45 0 -45
120 0 120 0 0 -25 c0 -18 -5 -25 -20 -25 -11 0 -20 -7 -20 -15 0 -11 -12 -15
-50 -15 -28 0 -50 -5 -50 -10 0 -6 6 -10 12 -9 43 5 88 -2 88 -15 0 -7 9 -16
20 -19 21 -5 27 -31 10 -42 -5 -3 -59 -6 -120 -6 l-110 1 0 -45 0 -44 117 -3
c105 -3 118 -5 121 -21 3 -12 -4 -20 -17 -24 -12 -3 -21 -12 -21 -19 0 -10
-14 -14 -50 -14 -27 0 -50 -4 -50 -10 0 -5 20 -10 45 -10 26 0 47 -5 52 -13 4
-8 16 -16 25 -20 19 -7 24 -32 9 -41 -5 -3 -59 -6 -120 -7 l-111 -2 0 -43 0
-44 114 0 c82 0 115 -4 118 -12 7 -19 -2 -38 -18 -38 -8 0 -14 -7 -14 -15 0
-14 -43 -21 -87 -16 -7 1 -13 -3 -13 -9 0 -9 33 -15 72 -12 10 1 22 -7 28 -18
6 -11 17 -20 25 -20 8 0 15 -9 15 -20 0 -22 -3 -22 -158 -20 l-83 1 2 -45 3
-46 112 0 c62 0 115 -4 118 -9 9 -14 -4 -41 -20 -41 -8 0 -14 -7 -14 -15 0
-15 -9 -18 -68 -17 -50 1 -38 -17 18 -24 33 -4 50 -11 50 -21 0 -8 7 -13 16
-11 9 2 20 -7 25 -19 11 -29 -4 -33 -138 -30 l-103 2 0 -42 0 -43 54 0 c96 0
175 -12 180 -27 4 -9 -1 -17 -14 -20 -11 -3 -20 -11 -20 -18 0 -14 -29 -24
-75 -26 -22 -1 -18 -3 17 -9 48 -8 103 -51 95 -74 -2 -7 -48 -12 -120 -14
l-117 -3 0 -39 0 -39 117 -3 c105 -3 118 -5 121 -21 3 -12 -4 -20 -17 -24 -12
-3 -21 -11 -21 -18 0 -14 -31 -25 -74 -25 -16 0 -26 -3 -22 -8 9 -8 14 -9 61
-11 25 -1 35 -6 35 -17 0 -10 6 -14 14 -11 15 6 31 -32 18 -45 -4 -4 -58 -8
-120 -9 l-112 -1 0 -42 0 -42 118 1 c114 0 117 -1 120 -22 3 -18 -2 -23 -18
-23 -16 0 -20 -4 -16 -15 5 -14 -11 -21 -38 -16 -4 1 -14 -3 -21 -9 -7 -6 -20
-8 -29 -4 -9 3 -16 1 -16 -5 0 -7 20 -11 50 -11 36 0 50 -4 50 -14 0 -7 9 -16
21 -19 13 -4 20 -12 17 -24 -3 -16 -16 -18 -121 -21 l-117 -3 0 -42 0 -42 60
-1 c33 -1 60 3 60 8 0 5 6 6 13 1 14 -9 18 -9 70 -11 45 -2 46 -14 8 -53 -23
-23 -39 -29 -70 -29 -23 0 -41 -4 -41 -10 0 -5 8 -9 17 -8 48 4 83 -3 83 -16
0 -7 8 -16 18 -19 17 -4 39 -47 23 -45 -3 0 -59 0 -123 -1 l-118 -1 0 -44 0
-44 60 -1 c40 0 60 4 60 12 0 8 3 8 9 -2 6 -9 23 -12 55 -10 25 2 46 0 46 -4
0 -5 4 -6 9 -3 5 4 7 -3 4 -14 -3 -11 -12 -20 -20 -20 -8 0 -17 -9 -20 -20 -4
-15 -14 -20 -39 -20 -19 0 -34 -4 -34 -10 0 -5 16 -10 35 -10 23 0 35 -5 35
-14 0 -7 9 -16 20 -19 13 -3 20 -14 20 -29 0 -23 0 -23 -120 -21 l-120 2 0
-44 0 -45 114 0 c63 0 117 -4 120 -9 9 -14 -4 -41 -20 -41 -8 0 -14 -7 -14
-15 0 -14 -33 -21 -82 -17 -10 1 -18 -3 -18 -8 0 -6 22 -10 49 -10 41 0 50 -3
54 -21 3 -12 10 -18 17 -14 7 4 14 -2 17 -14 4 -17 13 -21 49 -21 43 0 59 15
29 26 -15 6 -21 55 -9 67 4 4 22 -9 40 -28 18 -19 37 -35 43 -35 6 0 11 -7 11
-15 0 -12 16 -15 85 -15 47 0 85 3 85 6 0 10 -50 54 -61 54 -5 0 -9 4 -9 9 0
14 -45 61 -59 61 -6 0 -11 7 -11 15 0 8 -7 15 -15 15 -8 0 -15 5 -15 11 0 14
-47 59 -61 59 -5 0 -9 6 -9 14 0 8 -7 16 -15 20 -19 7 -19 36 0 36 8 0 15 4
15 9 0 14 45 61 59 61 6 0 11 7 11 15 0 8 7 15 15 15 8 0 15 7 15 15 0 8 7 15
16 15 9 0 18 9 21 20 3 11 12 20 19 20 8 0 14 7 14 16 0 9 7 14 17 12 14 -2
19 -15 21 -51 l3 -48 47 3 c41 3 47 6 45 25 -4 32 -46 73 -77 73 -14 0 -26 5
-26 11 0 14 47 59 61 59 5 0 9 7 9 15 0 8 9 15 20 15 17 0 20 -7 20 -50 l0
-50 44 0 c51 0 56 4 49 43 -4 18 -12 27 -24 27 -11 0 -18 6 -17 13 2 7 -9 13
-24 15 -20 2 -28 9 -28 23 0 10 7 19 15 19 8 0 15 4 15 9 0 14 45 61 59 61 7
0 11 -19 11 -50 0 -48 1 -50 28 -52 68 -3 67 -3 65 24 -2 32 -31 63 -67 72
-27 7 -37 36 -12 36 7 0 16 9 19 20 3 11 12 20 21 20 9 0 16 7 16 15 0 8 7 15
15 15 11 0 15 -12 15 -50 l0 -50 50 0 c42 0 50 3 50 19 0 25 -40 66 -73 75
-28 7 -38 36 -13 36 7 0 16 9 19 20 3 11 12 20 21 20 9 0 16 7 16 15 0 8 7 15
15 15 8 0 15 7 15 15 0 8 7 15 16 15 9 0 18 9 21 20 3 11 12 20 19 20 8 0 14
7 14 16 0 9 7 14 17 12 13 -2 18 -14 19 -38 1 -19 2 -41 3 -47 1 -8 17 -13 46
-13 43 0 45 1 45 30 0 20 -5 30 -15 30 -8 0 -15 6 -15 14 0 15 -21 26 -51 26
-25 0 -25 30 1 37 11 3 20 12 20 19 0 8 6 14 14 14 7 0 16 9 19 21 10 39 32
15 35 -39 l3 -52 44 0 c24 0 47 5 50 10 9 15 -4 50 -20 50 -7 0 -15 9 -18 19
-3 12 -15 21 -33 23 -34 4 -44 27 -15 35 12 3 21 9 21 14 0 15 39 49 55 49 11
0 15 -12 15 -45 l0 -45 51 0 c48 0 51 1 45 22 -3 13 -6 27 -6 31 0 4 -8 7 -17
5 -12 -2 -17 3 -15 13 1 11 -7 18 -28 22 -31 7 -43 37 -15 37 8 0 15 4 15 9 0
14 45 61 59 61 6 0 11 7 11 15 0 8 7 15 15 15 8 0 15 5 15 11 0 17 50 60 61
54 5 -4 9 -26 9 -51 l0 -44 50 0 c50 0 50 0 48 30 -2 27 -13 35 -40 31 -4 0
-5 6 -2 13 4 10 -5 16 -25 21 -31 6 -44 35 -17 35 7 0 16 9 19 20 3 11 12 20
21 20 9 0 16 7 16 15 0 8 7 15 14 15 11 0 16 -14 18 -47 l3 -48 48 -3 c46 -3
47 -3 47 27 0 18 -5 31 -13 31 -7 0 -18 9 -24 19 -7 11 -22 21 -34 23 -28 4
-36 24 -12 30 28 6 53 -2 53 -18 0 -8 6 -14 13 -14 8 0 27 -16 43 -35 30 -36
44 -44 44 -24 0 14 47 59 61 59 5 0 9 5 9 11 0 7 8 18 18 25 16 13 16 15 -1
28 -9 7 -17 18 -17 25 0 6 -6 11 -14 11 -8 0 -18 9 -21 20 -3 11 -13 20 -21
20 -8 0 -14 7 -14 15 0 23 -27 18 -33 -6 -3 -12 -10 -18 -15 -15 -5 3 -12 -3
-15 -14 -3 -11 -12 -20 -21 -20 -9 0 -16 -7 -16 -15 0 -10 -11 -15 -35 -15
-24 0 -35 5 -35 15 0 8 -6 15 -14 15 -7 0 -16 9 -19 20 -3 11 -12 20 -21 20
-9 0 -16 7 -16 15 0 8 -7 15 -15 15 -8 0 -15 7 -15 15 0 8 -7 15 -15 15 -8 0
-15 5 -15 11 0 14 -47 59 -61 59 -5 0 -9 7 -9 16 0 9 -9 18 -20 21 -11 3 -20
12 -20 19 0 8 -7 14 -15 14 -8 0 -15 7 -15 15 0 8 -7 15 -15 15 -8 0 -15 9
-15 20 0 11 -7 20 -15 20 -9 0 -18 7 -21 15 -4 8 -12 15 -20 15 -8 0 -14 7
-14 15 0 9 -7 18 -15 21 -8 4 -15 12 -15 20 0 8 -9 14 -20 14 -11 0 -20 7 -20
15 0 8 -7 15 -15 15 -8 0 -15 6 -15 14 0 7 -9 16 -20 19 -33 9 -24 34 15 41
20 4 33 11 29 17 -3 6 3 13 14 16 23 6 36 52 17 59 -7 3 -30 4 -51 2 -37 -3
-37 -3 -38 -48 -1 -34 -5 -46 -18 -48 -10 -2 -18 1 -18 7 0 14 -45 61 -59 61
-6 0 -11 7 -11 15 0 8 -7 15 -15 15 -8 0 -15 6 -15 14 0 8 -9 18 -20 21 -11 3
-20 13 -20 21 0 8 -7 14 -15 14 -8 0 -15 7 -15 15 0 8 -6 15 -14 15 -8 0 -18
9 -21 20 -4 11 -11 18 -16 14 -6 -3 -13 3 -16 15 -3 12 -11 21 -18 21 -7 0
-15 9 -18 20 -3 11 -12 20 -21 20 -9 0 -16 7 -16 15 0 8 -7 15 -15 15 -8 0
-15 7 -15 15 0 8 -7 15 -15 15 -8 0 -15 9 -15 19 0 14 8 21 27 23 20 2 29 9
31 26 2 12 8 19 14 16 12 -8 28 14 28 39 0 14 -9 17 -50 17 l-50 0 0 -50 c0
-43 -3 -50 -20 -50 -11 0 -20 7 -20 15 0 8 -6 15 -14 15 -7 0 -16 9 -19 20 -3
11 -12 20 -21 20 -9 0 -16 7 -16 15 0 8 -7 15 -15 15 -8 0 -15 7 -15 15 0 8
-6 15 -14 15 -7 0 -16 9 -19 20 -3 11 -12 20 -21 20 -9 0 -16 7 -16 15 0 8 -6
15 -14 15 -7 0 -16 9 -19 20 -3 11 -12 20 -21 20 -9 0 -16 7 -16 15 0 8 -7 15
-15 15 -8 0 -15 7 -15 15 0 8 -7 15 -15 15 -8 0 -15 9 -15 20 0 11 7 20 15 20
8 0 15 7 15 15 0 8 7 15 15 15 8 0 15 6 15 14 0 7 9 16 20 19 11 3 20 12 20
21 0 9 7 16 15 16 8 0 15 6 15 14 0 7 9 16 20 19 11 3 20 12 20 21 0 9 7 16
15 16 8 0 15 7 15 16 0 9 7 14 18 12 12 -2 17 -14 18 -38 1 -19 2 -41 3 -47 1
-15 86 -18 95 -5 8 13 -5 52 -18 52 -6 0 -19 9 -29 20 -9 11 -26 20 -37 20
-26 0 -26 27 0 35 11 3 20 13 20 21 0 8 7 14 15 14 8 0 15 7 15 15 0 8 9 15
20 15 17 0 20 -7 20 -50 l0 -50 51 0 c48 0 51 1 45 22 -3 13 -6 26 -6 31 0 4
-6 7 -14 7 -7 0 -16 9 -19 20 -3 14 -14 20 -31 20 -19 0 -26 5 -26 20 0 11 7
20 15 20 8 0 15 7 15 15 0 8 7 15 15 15 8 0 15 7 15 15 0 8 9 15 19 15 17 0
20 -8 23 -47 3 -48 3 -48 42 -51 21 -2 42 0 47 5 12 12 -2 63 -17 63 -8 0 -14
7 -14 15 0 10 -10 15 -30 15 -23 0 -30 4 -30 20 0 11 7 20 15 20 8 0 15 6 15
14 0 7 9 16 20 19 11 3 20 12 20 21 0 9 7 16 15 16 8 0 15 7 15 15 0 8 4 15 9
15 14 0 61 45 61 59 0 6 7 11 15 11 11 0 15 -12 15 -50 l0 -50 50 0 c44 0 50
2 50 21 0 26 -39 64 -74 73 -25 6 -37 36 -15 36 16 0 59 42 59 58 0 8 8 12 17
10 14 -3 18 -13 18 -48 l0 -45 48 -3 c46 -3 47 -3 47 27 0 24 -4 31 -20 31
-11 0 -20 7 -20 15 0 9 -12 18 -30 21 -33 7 -41 34 -10 34 13 0 20 7 20 20 0
11 7 20 15 20 8 0 15 7 15 15 0 8 9 15 20 15 11 0 20 6 20 14 0 8 7 16 15 20
8 3 15 12 15 21 0 8 6 15 14 15 8 0 16 7 20 15 3 8 12 15 21 15 8 0 15 9 15
20 0 11 7 20 15 20 8 0 15 7 15 15 0 8 7 15 15 15 8 0 15 7 15 15 0 8 9 15 19
15 17 0 20 -8 23 -48 3 -41 6 -47 27 -50 43 -6 73 7 69 30 -2 12 -12 25 -23
28 -11 3 -20 12 -20 20 0 9 -11 16 -27 18 -20 2 -28 9 -28 23 0 10 7 19 15 19
8 0 15 6 15 14 0 7 9 16 20 19 11 3 20 12 20 21 0 9 7 16 14 16 11 0 16 -15
18 -52 l3 -53 45 0 c43 0 45 1 45 30 0 23 -5 30 -20 30 -13 0 -19 6 -17 17 2
12 -6 18 -25 20 -30 3 -47 38 -19 38 9 0 16 6 16 14 0 7 9 16 20 19 11 3 20
12 20 21 0 9 7 16 15 16 8 0 15 7 15 15 0 10 11 15 35 15 23 0 35 -5 35 -14 0
-7 9 -16 20 -19 11 -3 20 -12 20 -21 0 -9 7 -16 15 -16 8 0 15 -7 15 -15 0 -8
7 -15 15 -15 8 0 15 7 15 15 0 8 7 15 15 15 8 0 15 4 15 10 0 5 17 25 37 45
35 34 36 38 20 49 -9 7 -17 18 -17 25 0 6 -6 11 -13 11 -8 0 -26 16 -42 35
l-29 34 -31 -34 c-17 -19 -36 -35 -43 -35 -6 0 -12 -7 -12 -15 0 -10 -11 -15
-35 -15 -24 0 -35 5 -35 15 0 8 -7 15 -15 15 -8 0 -15 7 -15 15 0 8 -5 15 -11
15 -14 0 -59 47 -59 61 0 5 -7 9 -15 9 -8 0 -15 7 -15 16 0 9 -9 18 -20 21
-11 3 -20 12 -20 19 0 8 -7 14 -15 14 -8 0 -15 6 -15 14 0 7 -9 16 -20 19 -11
3 -20 12 -20 21 0 9 -7 16 -15 16 -8 0 -15 7 -15 15 0 8 -7 15 -15 15 -8 0
-15 9 -15 20 0 12 6 20 13 19 30 -4 45 3 50 22 3 12 10 18 15 15 14 -8 21 42
8 53 -9 7 -50 9 -78 3 -5 -1 -8 -22 -8 -45 0 -24 -3 -46 -6 -50 -10 -9 -34 4
-34 19 0 8 -7 14 -15 14 -8 0 -15 7 -15 15 0 8 -5 15 -11 15 -14 0 -59 47 -59
61 0 5 -7 9 -15 9 -8 0 -15 6 -15 14 0 7 -9 16 -20 19 -33 9 -24 34 16 41 30
6 34 9 23 22 -7 8 -8 14 -3 13 32 -6 44 2 44 31 0 29 -2 30 -45 30 -44 0 -45
-1 -46 -32 -2 -58 -4 -63 -21 -66 -11 -2 -18 3 -18 12 0 9 -4 16 -9 16 -14 0
-61 45 -61 59 0 6 -7 11 -15 11 -8 0 -15 7 -15 15 0 8 -5 15 -11 15 -14 0 -59
47 -59 61 0 5 -4 9 -9 9 -14 0 -61 45 -61 59 0 6 -7 11 -15 11 -8 0 -15 7 -15
15 0 8 -5 15 -11 15 -14 0 -59 47 -59 61 0 5 -7 9 -15 9 -8 0 -15 9 -15 20 0
15 7 20 26 20 19 0 25 4 20 15 -4 10 1 15 14 15 18 0 40 27 40 49 0 6 -21 11
-49 11 l-50 0 -3 -47 c-3 -49 -25 -71 -35 -34 -3 12 -9 21 -14 21 -13 0 -59
46 -59 59 0 6 12 11 27 11 30 0 85 55 81 80 -4 20 -97 28 -99 8 -1 -7 -2 -29
-3 -48 -1 -24 -7 -36 -19 -38 -10 -2 -17 3 -17 12 0 9 -4 16 -9 16 -14 0 -61
45 -61 59 0 6 -7 11 -15 11 -8 0 -15 7 -15 15 0 8 -7 15 -15 15 -9 0 -20 10
-25 23 -5 12 -9 18 -9 13 -1 -5 -12 3 -26 18 -28 30 -34 76 -10 76 8 0 15 7
15 16 0 9 9 18 20 21 11 3 20 12 20 19 0 8 7 14 15 14 8 0 15 7 15 15 0 8 5
15 11 15 14 0 59 47 59 61 0 5 7 9 15 9 9 0 18 7 21 15 4 8 12 15 20 15 10 0
14 -14 14 -50 l0 -50 50 0 c48 0 50 1 50 28 0 31 -32 64 -70 72 -27 6 -41 40
-17 40 8 0 17 7 21 15 3 8 12 15 21 15 8 0 15 6 15 13 0 15 44 57 59 57 6 0
11 7 11 15 0 8 6 15 14 15 7 0 16 9 19 20 3 11 12 20 21 20 9 0 16 7 16 15 0
8 7 15 15 15 8 0 15 7 15 15 0 8 7 15 16 15 9 0 18 9 21 20 3 11 12 20 19 20
10 0 14 -14 14 -49 0 -48 1 -49 33 -53 54 -6 67 0 67 33 0 19 -5 29 -15 29 -8
0 -15 6 -15 14 0 8 -13 17 -30 21 -31 7 -51 26 -33 32 18 6 63 51 63 63 0 6 8
10 18 8 13 -2 17 -14 18 -46 2 -51 1 -50 39 -52 53 -4 65 0 65 18 0 27 -53 82
-78 82 -12 0 -22 4 -22 9 0 14 45 61 59 61 6 0 11 7 11 15 0 8 7 15 15 15 11
0 15 -12 15 -50 l0 -50 50 0 c46 0 50 2 50 24 0 31 -38 73 -69 78 -31 4 -39
28 -12 35 12 3 21 12 21 19 0 8 7 14 15 14 8 0 15 7 15 16 0 9 7 14 17 12 12
-2 17 -14 17 -48 1 -42 3 -45 30 -48 68 -8 97 20 56 55 -11 10 -20 23 -20 30
0 6 -12 13 -27 15 -30 3 -47 38 -19 38 9 0 16 7 16 15 0 8 6 15 14 15 8 0 16
7 20 15 3 8 12 15 21 15 11 0 15 -12 15 -51 l0 -50 48 3 c39 2 48 7 50 24 4
25 -36 69 -71 78 -28 7 -38 36 -12 36 8 0 15 7 15 15 0 8 6 15 13 15 6 0 25
16 41 35 16 19 35 35 43 35 7 0 13 6 13 14 0 8 7 16 15 20 8 3 15 13 15 21 0
10 7 15 17 13 14 -2 19 -15 21 -51 2 -27 8 -47 15 -48 77 -6 82 -5 80 23 -2
32 -47 78 -74 78 -11 0 -19 7 -19 15 0 8 6 15 14 15 7 0 16 9 19 20 3 11 12
20 21 20 9 0 16 7 16 15 0 8 7 15 15 15 8 0 15 6 15 14 0 15 35 27 56 19 8 -3
14 -11 14 -19 0 -8 7 -14 15 -14 8 0 15 -9 15 -20 0 -11 7 -20 15 -20 9 0 18
-7 21 -15 4 -8 12 -15 20 -15 8 0 14 7 14 15 0 8 7 15 16 15 9 0 18 9 21 20 3
11 12 20 19 20 8 0 14 7 14 15 0 8 7 15 15 15 19 0 19 29 0 36 -8 4 -15 12
-15 20 0 8 -7 14 -15 14 -8 0 -15 4 -15 10 0 11 -48 60 -59 60 -5 0 -11 -9
-14 -20 -9 -33 -37 -14 -31 20 6 27 5 28 -40 31 -25 2 -50 3 -56 1 -15 -5 -13
-102 3 -102 29 0 57 13 57 27 0 18 32 13 38 -5 2 -7 -5 -16 -17 -19 -12 -3
-21 -12 -21 -19 0 -9 -12 -14 -35 -14 -24 0 -35 5 -35 15 0 8 -6 15 -14 15 -7
0 -16 9 -19 20 -3 11 -12 20 -21 20 -9 0 -16 6 -16 14 0 8 -7 16 -15 20 -8 3
-15 12 -15 21 0 8 -5 15 -12 15 -13 0 -88 76 -88 90 0 6 -7 10 -16 10 -9 0
-18 9 -21 20 -3 11 -12 20 -19 20 -8 0 -14 7 -14 15 0 8 -7 15 -15 15 -28 0
-15 28 15 35 17 4 30 12 30 20 0 7 9 15 21 18 16 4 20 12 17 34 -3 26 -7 28
-50 31 l-48 3 0 -49 c0 -27 -3 -51 -6 -55 -10 -9 -34 4 -34 19 0 8 -7 14 -15
14 -8 0 -15 6 -15 14 0 8 -7 16 -15 20 -8 3 -15 12 -15 21 0 8 -9 15 -20 15
-11 0 -20 6 -20 14 0 8 -7 16 -15 20 -8 3 -15 12 -15 21 0 8 -5 15 -11 15 -15
0 -59 42 -59 58 0 6 -4 12 -9 12 -17 0 -63 49 -56 59 3 6 19 11 36 11 19 0 29
5 29 15 0 8 4 15 10 15 15 0 31 37 24 55 -5 12 -17 15 -53 13 l-46 -3 -3 -47
c-2 -34 -7 -48 -18 -48 -7 0 -14 7 -14 15 0 8 -6 15 -14 15 -8 0 -18 9 -21 20
-3 11 -13 20 -21 20 -8 0 -14 7 -14 15 0 8 -6 15 -14 15 -7 0 -16 9 -19 21 -3
12 -10 18 -17 14 -7 -4 -14 2 -17 14 -3 12 -12 21 -19 21 -25 0 -15 29 12 36
39 10 76 49 72 76 -3 20 -10 23 -50 26 l-48 3 0 -50 c0 -44 -3 -51 -20 -51
-11 0 -20 7 -20 15 0 8 -7 15 -15 15 -8 0 -15 7 -15 15 0 9 -7 18 -15 21 -8 4
-15 12 -15 20 0 8 -5 14 -11 14 -6 0 -31 20 -56 45 l-44 45 26 10 c15 6 28 10
31 10 13 0 54 55 54 71 0 16 -8 19 -50 19 -45 0 -50 -2 -51 -22 -3 -47 -6 -69
-13 -75 -7 -7 -56 43 -56 58 0 5 -5 9 -11 9 -14 0 -59 47 -59 61 0 5 -6 9 -12
9 -16 0 -58 44 -58 59 0 6 -7 11 -15 11 -19 0 -19 26 0 34 8 3 15 12 15 21 0
8 7 15 15 15 9 0 18 7 21 15 4 8 12 15 20 15 8 0 14 7 14 16 0 9 9 18 20 21
11 3 20 12 20 19 0 8 7 14 15 14 8 0 15 7 15 15 0 8 7 15 15 15 8 0 19 9 25
20 16 30 30 15 30 -35 l0 -43 43 -4 c23 -3 45 -3 50 -1 11 6 9 63 -3 63 -5 0
-19 9 -30 20 -11 11 -29 20 -40 20 -11 0 -20 7 -20 15 0 8 7 15 15 15 8 0 15
7 15 16 0 9 9 18 20 21 11 3 20 12 20 19 0 8 7 14 15 14 8 0 15 6 15 14 0 7 9
16 20 19 11 3 20 12 20 21 0 9 7 16 15 16 8 0 15 7 15 15 0 8 9 15 20 15 11 0
20 5 20 12 0 13 76 88 90 88 6 0 10 -22 10 -50 l0 -50 50 0 c48 0 50 1 50 28
0 31 -32 64 -69 72 -32 6 -39 30 -12 37 12 3 21 12 21 19 0 8 6 14 14 14 7 0
16 9 19 20 3 11 10 20 16 20 13 0 25 -45 17 -65 -12 -32 5 -45 55 -45 42 0 49
3 49 20 0 11 -9 29 -20 40 -11 11 -20 24 -20 29 0 5 -13 12 -30 16 -30 7 -43
35 -15 35 8 0 15 7 15 15 0 8 7 15 15 15 8 0 19 9 26 21 15 29 27 13 31 -41
l3 -45 45 0 c43 0 45 1 48 33 2 18 -1 32 -7 32 -6 0 -20 9 -31 20 -11 11 -29
20 -40 20 -11 0 -20 7 -20 15 0 8 6 15 13 15 15 0 57 44 57 59 0 6 7 11 15 11
11 0 15 -12 15 -49 0 -52 8 -61 58 -61 41 0 54 13 46 43 -3 15 -12 27 -20 27
-8 0 -14 7 -14 15 0 9 -12 18 -30 22 -38 7 -49 23 -21 30 12 3 21 13 21 24 0
11 6 19 14 19 8 0 16 7 20 15 3 8 12 15 21 15 8 0 15 7 15 15 0 8 7 15 15 15
8 0 15 7 15 16 0 9 9 18 20 21 11 3 20 12 20 19 0 8 7 14 15 14 11 0 15 -12
15 -50 l0 -50 50 0 c49 0 50 1 50 29 0 21 -6 32 -20 36 -11 3 -19 11 -17 18 1
6 -11 13 -27 16 -36 7 -45 27 -17 36 12 3 21 13 21 21 0 8 7 14 15 14 8 0 15
7 15 15 0 8 9 15 20 15 11 0 20 7 20 15 0 9 7 18 15 21 8 4 15 12 15 20 0 8 9
14 20 14 11 0 20 7 20 15 0 8 7 15 15 15 11 0 15 -12 15 -50 l0 -50 50 0 50 0
0 35 c0 28 -4 35 -20 35 -13 0 -18 5 -14 15 4 8 12 15 20 15 8 0 14 -7 14 -15
0 -8 6 -15 14 -15 8 0 18 -9 21 -20 9 -27 16 -25 49 15 16 19 35 35 43 35 7 0
13 7 13 15 0 9 7 18 15 21 24 9 19 20 -40 79 -56 56 -75 66 -75 40 0 -8 -9
-15 -20 -15 -12 0 -17 -5 -14 -14 3 -7 -2 -16 -11 -20 -26 -10 -30 23 -6 45
36 34 24 54 -37 57 l-52 3 0 -50 c0 -39 -4 -51 -15 -51 -8 0 -15 7 -15 15 0 8
-7 15 -16 15 -9 0 -18 9 -21 20 -3 11 -12 20 -19 20 -8 0 -14 7 -14 15 0 8 -6
15 -14 15 -8 0 -18 9 -21 20 -3 11 -13 20 -21 20 -8 0 -14 7 -14 15 0 8 -7 15
-15 15 -27 0 -16 28 14 35 16 3 32 13 35 21 3 8 12 14 21 14 11 0 15 10 15 35
l0 35 -50 0 -50 0 0 -50 c0 -43 -3 -50 -20 -50 -11 0 -20 7 -20 15 0 8 -7 15
-15 15 -8 0 -15 7 -15 15 0 9 -7 18 -15 21 -8 4 -15 12 -15 20 0 8 -5 14 -11
14 -15 0 -99 86 -92 94 4 3 14 6 24 6 20 0 79 55 79 74 0 22 -23 36 -61 36
-36 0 -36 0 -42 -51 -4 -29 -8 -54 -11 -56 -8 -8 -97 87 -91 97 3 6 19 10 36
10 19 0 29 5 29 15 0 8 6 15 14 15 17 0 31 49 18 62 -5 5 -29 8 -53 6 l-44 -3
-3 -47 c-2 -34 -7 -48 -18 -48 -7 0 -14 7 -14 15 0 8 -6 15 -14 15 -8 0 -18 9
-21 20 -3 11 -13 20 -21 20 -8 0 -14 7 -14 15 0 8 -7 15 -15 15 -8 0 -15 4
-15 10 0 12 -48 60 -60 60 -24 0 -7 29 19 35 16 3 32 13 35 21 3 8 12 14 21
14 11 0 15 10 15 36 l0 35 -47 -3 -48 -3 -3 -45 c-4 -54 -16 -70 -31 -41 -7
12 -18 21 -26 21 -8 0 -15 6 -15 14 0 8 -7 16 -15 20 -8 3 -15 12 -15 21 0 8
-6 15 -12 15 -16 0 -58 44 -58 59 0 6 -7 11 -15 11 -28 0 -15 28 15 35 17 4
30 13 30 21 0 8 9 14 21 14 17 0 20 5 17 32 -3 31 -5 33 -50 36 l-48 4 -1 -39
c-2 -61 -3 -66 -17 -71 -7 -2 -16 5 -19 17 -3 12 -9 21 -14 21 -16 0 -61 49
-54 59 3 6 19 11 34 11 21 0 30 6 34 21 3 12 10 18 15 15 5 -3 12 4 16 17 11
43 8 47 -44 47 -40 0 -50 -3 -52 -17 0 -10 -2 -22 -3 -28 -2 -5 -3 -20 -4 -32
-1 -25 -31 -32 -31 -8 0 8 -6 15 -14 15 -7 0 -16 9 -19 20 -3 11 -12 20 -21
20 -9 0 -16 7 -16 15 0 8 -7 15 -15 15 -8 0 -15 5 -15 11 0 14 -47 59 -61 59
-5 0 -9 6 -9 14 0 8 -7 16 -15 20 -8 3 -15 12 -15 21 0 8 7 15 15 15 8 0 15 6
15 14 0 7 9 16 20 19 11 3 20 12 20 21 0 9 7 16 15 16 8 0 15 7 15 15 0 8 5
15 11 15 15 0 59 42 59 58 0 6 7 12 15 12 9 0 18 7 21 15 4 8 12 15 20 15 8 0
14 6 14 13 0 15 44 57 59 57 6 0 11 7 11 15 0 8 7 15 15 15 11 0 15 -12 15
-51 l0 -50 53 3 c49 3 52 4 48 28 -4 31 -38 65 -73 74 -33 8 -37 26 -8 33 11
3 20 12 20 19 0 8 7 14 15 14 8 0 15 7 15 15 0 8 9 15 20 15 17 0 20 -7 20
-51 l0 -50 48 3 c43 3 47 5 48 28 0 29 -36 67 -68 72 -26 3 -38 38 -14 38 9 0
16 6 16 14 0 7 9 16 20 19 11 3 20 12 20 21 0 9 7 16 14 16 11 0 16 -15 18
-52 l3 -53 48 -3 47 -3 0 35 c0 25 -4 36 -15 36 -8 0 -15 6 -15 14 0 7 -14 17
-32 22 -37 11 -50 34 -19 34 12 0 21 6 21 13 0 18 48 59 60 52 7 -4 10 -26 8
-49 l-3 -41 54 -3 c53 -3 53 -3 47 23 -8 33 -52 75 -77 75 -11 0 -19 7 -19 15
0 8 7 15 15 15 8 0 15 5 15 11 0 14 47 59 61 59 5 0 9 7 9 15 0 8 7 15 16 15
9 0 18 9 21 20 3 11 12 20 19 20 8 0 14 7 14 15 0 8 7 15 15 15 11 0 15 -12
15 -51 l0 -50 53 3 c48 3 52 5 49 26 -4 30 -45 72 -70 72 -28 0 -38 30 -12 37
11 3 20 12 20 19 0 8 6 14 14 14 8 0 16 7 20 15 3 8 12 15 21 15 11 0 15 -12
15 -51 l0 -50 48 3 c44 3 47 5 48 31 1 17 -4 27 -13 27 -8 0 -17 9 -20 19 -3
12 -15 21 -31 23 -29 3 -45 38 -18 38 9 0 16 7 16 15 0 8 7 15 15 15 8 0 19 9
26 21 15 29 27 13 31 -41 l3 -45 48 -3 c46 -3 47 -2 47 25 0 33 -33 67 -72 77
-33 8 -37 26 -8 33 11 3 20 9 20 14 0 4 11 20 24 34 26 28 48 26 45 -3 -1 -10
-1 -32 0 -49 1 -32 2 -33 45 -33 26 0 46 5 48 12 8 22 -4 58 -18 58 -8 0 -14
6 -14 14 0 8 -13 17 -30 21 -16 4 -30 10 -30 15 0 13 46 60 59 60 6 0 11 7 11
15 0 8 7 15 15 15 8 0 15 7 15 15 0 10 10 15 30 15 18 0 33 -6 36 -15 4 -8 12
-15 20 -15 8 0 14 -9 14 -20 0 -11 7 -20 15 -20 9 0 18 -7 21 -15 4 -8 12 -15
20 -15 8 0 14 7 14 15 0 8 7 15 15 15 8 0 15 7 15 16 0 9 9 18 20 21 11 3 20
12 20 19 0 8 7 14 15 14 8 0 15 6 15 14 0 8 -7 16 -15 20 -8 3 -15 12 -15 21
0 8 -6 15 -12 15 -16 0 -58 44 -58 59 0 20 -28 12 -33 -10 -3 -12 -10 -18 -17
-14 -7 4 -14 -2 -17 -14 -3 -12 -12 -21 -19 -21 -8 0 -14 -7 -14 -15 0 -10
-11 -15 -35 -15 -24 0 -35 5 -35 15 0 8 -7 15 -15 15 -8 0 -15 7 -15 16 0 9
-9 18 -20 21 -11 3 -20 11 -20 18 0 7 -7 16 -16 19 -21 8 -13 28 13 32 34 6
75 49 71 76 -3 20 -9 23 -48 23 l-45 0 -3 -47 c-2 -27 -8 -48 -14 -48 -13 0
-88 77 -88 90 0 6 11 10 25 10 14 0 28 7 31 15 3 8 13 17 23 20 10 3 18 17 19
35 2 30 2 30 -48 30 l-50 0 0 -44 c0 -25 -5 -48 -10 -51 -12 -8 -60 34 -60 53
0 6 -7 12 -15 12 -8 0 -15 7 -15 15 0 8 9 15 19 15 21 0 81 54 81 73 -1 27
-18 38 -56 35 -39 -3 -39 -3 -44 -52 -5 -52 -27 -74 -37 -37 -3 12 -12 21 -19
21 -8 0 -14 6 -14 14 0 7 -9 16 -21 19 -31 8 -18 31 19 35 20 2 32 9 32 18 0
8 5 14 10 14 6 0 16 12 22 26 15 32 0 44 -53 44 -36 0 -36 0 -43 -50 -5 -34
-11 -50 -21 -50 -8 0 -15 7 -15 15 0 8 -6 15 -14 15 -7 0 -16 9 -19 20 -3 11
-12 20 -21 20 -9 0 -16 5 -16 10 0 13 -77 90 -90 90 -5 0 -10 6 -10 14 0 8 15
17 35 20 21 4 35 13 35 21 0 8 6 15 14 15 15 0 27 43 16 60 -4 6 -26 10 -51 8
-44 -3 -44 -3 -47 -43 -5 -68 -9 -69 -57 -22 -25 25 -45 50 -45 56 0 6 -4 11
-9 11 -14 0 -61 45 -61 59 0 6 -7 11 -15 11 -8 0 -15 7 -15 15 0 8 9 15 20 15
11 0 28 9 37 20 10 11 23 20 30 20 17 0 17 56 1 62 -7 3 -29 4 -48 4 -34 -1
-35 -2 -40 -50 -5 -52 -27 -74 -37 -37 -3 12 -12 21 -19 21 -8 0 -14 6 -14 14
0 7 -9 16 -20 19 -31 8 -14 37 21 37 19 0 29 5 29 15 0 8 7 15 15 15 16 0 31
43 20 59 -3 6 -26 11 -51 11 -43 0 -44 0 -45 -35 -2 -57 -3 -60 -21 -63 -11
-2 -18 3 -18 12 0 9 -7 16 -15 16 -8 0 -15 5 -15 11 0 14 -47 59 -61 59 -5 0
-9 7 -9 15 0 12 -16 15 -85 15 -52 0 -85 -4 -85 -10 0 -6 7 -13 15 -16 8 -4
15 -12 15 -20 0 -8 5 -14 11 -14 13 0 84 -73 92 -95 4 -8 13 -15 22 -15 8 0
15 -7 15 -15 0 -8 7 -15 15 -15 8 0 15 -7 15 -15 0 -9 7 -18 15 -21 8 -4 15
-12 15 -20 0 -8 9 -14 20 -14 11 0 20 -4 20 -9 0 -14 45 -61 59 -61 6 0 11 -6
11 -14 0 -8 7 -16 15 -20 8 -3 15 -12 15 -21 0 -8 5 -15 11 -15 15 0 59 -42
59 -57 0 -7 7 -13 15 -13 8 0 15 -6 15 -14 0 -7 9 -16 20 -19 11 -3 20 -12 20
-21 0 -9 7 -16 15 -16 8 0 15 -7 15 -15 0 -8 6 -15 14 -15 7 0 16 -9 19 -20 3
-11 12 -20 21 -20 9 0 16 -7 16 -15 0 -8 7 -15 15 -15 8 0 15 -4 15 -10 0 -12
48 -60 60 -60 6 0 10 -4 10 -9 0 -15 45 -61 59 -61 7 0 11 -8 9 -17 -2 -12
-13 -18 -33 -18 l-30 0 -3 -67 -3 -68 65 0 c36 0 67 4 70 8 11 19 -7 52 -28
52 -39 0 -58 36 -37 69 7 11 19 4 55 -31 25 -25 46 -51 46 -57 0 -6 7 -11 15
-11 8 0 15 -6 15 -14 0 -7 9 -16 20 -19 11 -3 20 -12 20 -21 0 -9 7 -16 15
-16 8 0 15 -6 15 -14 0 -7 9 -16 20 -19 11 -3 20 -12 20 -21 0 -9 7 -16 15
-16 8 0 15 -7 15 -15 0 -8 7 -15 15 -15 8 0 15 -5 15 -11 0 -15 -42 -59 -57
-59 -7 0 -13 -4 -13 -9 0 -14 -45 -61 -59 -61 -6 0 -11 -7 -11 -15 0 -8 -7
-15 -15 -15 -8 0 -15 -6 -15 -12 0 -16 -44 -58 -59 -58 -6 0 -11 16 -11 35 l0
35 -70 0 -70 0 0 -64 c0 -68 8 -80 49 -69 16 4 21 1 21 -16 0 -12 -6 -21 -15
-21 -8 0 -15 -7 -15 -15 0 -8 -7 -15 -16 -15 -9 0 -18 -9 -21 -20 -3 -11 -12
-20 -19 -20 -8 0 -14 -7 -14 -15 0 -8 -9 -15 -20 -15 -11 0 -20 -6 -20 -12 0
-16 -44 -58 -59 -58 -6 0 -11 -6 -11 -12 0 -16 -44 -58 -59 -58 -7 0 -9 -5 -6
-11 4 -6 -2 -13 -13 -16 -11 -2 -23 -14 -25 -25 -3 -12 -10 -17 -17 -13 -7 4
-14 -2 -17 -14 -3 -12 -12 -21 -19 -21 -8 0 -14 -7 -14 -15 0 -8 -9 -15 -21
-15 -17 0 -20 5 -17 33 3 28 7 32 36 35 28 3 32 7 32 33 l0 29 -65 0 -65 0 0
-65 0 -65 30 0 c23 0 30 -4 30 -20 0 -11 -7 -20 -15 -20 -8 0 -15 -7 -15 -15
0 -8 -5 -15 -11 -15 -14 0 -59 -47 -59 -61 0 -5 -9 -9 -20 -9 -11 0 -19 -3
-18 -7 4 -10 -39 -53 -52 -53 -6 0 -10 -5 -10 -10 0 -13 -187 -200 -200 -200
-20 0 -9 55 15 79 32 30 32 49 0 57 -44 11 -30 34 20 34 28 0 47 5 50 13 4 13
14 123 14 169 l1 27 100 -4 99 -3 3 101 3 102 103 3 102 3 0 99 0 100 105 0
104 0 3 103 3 102 93 1 c69 1 96 5 103 15 5 8 9 60 9 117 l0 102 -47 1 c-55 1
-144 6 -156 8 -4 0 -7 40 -6 89 1 48 1 92 0 99 -1 9 -31 13 -98 15 l-98 3 -3
103 -3 102 -99 0 -99 0 -3 103 -3 102 -100 5 -100 5 -2 94 c-1 51 -5 96 -8 99
-3 4 -25 7 -48 7 -32 0 -43 4 -45 18 -3 14 4 17 32 17 37 0 51 22 21 34 -8 3
-15 12 -15 20 0 7 -9 16 -20 19 -14 3 -20 14 -20 31 l0 26 -100 0 c-60 0 -100
-4 -100 -10z m270 -495 l5 -100 95 -5 95 -5 3 -90 c3 -112 7 -115 119 -115
l83 0 0 -100 c0 -116 -8 -108 125 -112 l80 -3 0 -80 0 -80 -102 -3 -103 -3 0
-99 0 -99 -102 -3 -103 -3 -5 -100 -5 -100 -77 3 c-42 1 -88 -2 -102 -8 -25
-9 -26 -12 -26 -105 l0 -96 -32 3 -33 3 -1 65 c-1 94 6 140 22 140 8 0 14 7
14 15 0 8 5 15 11 15 6 0 55 45 109 100 54 55 103 100 109 100 6 0 11 7 11 16
0 9 9 18 20 21 11 3 20 12 20 19 0 8 6 14 14 14 7 0 16 9 19 20 3 11 12 20 21
20 9 0 16 7 16 15 0 8 7 15 15 15 8 0 15 7 15 15 0 8 7 15 16 15 9 0 18 9 21
20 3 11 12 20 19 20 8 0 14 7 14 15 0 8 7 15 15 15 8 0 15 7 15 15 0 9 -7 18
-15 21 -8 4 -15 12 -15 20 0 8 -7 14 -15 14 -8 0 -15 7 -15 16 0 9 -9 18 -20
21 -11 3 -20 12 -20 19 0 8 -7 14 -15 14 -8 0 -15 4 -15 10 0 5 -45 55 -100
110 -55 54 -100 104 -100 110 0 5 -5 10 -11 10 -13 0 -94 82 -91 92 1 4 -7 10
-18 13 -11 4 -20 13 -20 21 0 8 -7 14 -15 14 -12 0 -15 18 -15 98 0 54 3 102
7 106 4 4 19 6 33 4 25 -3 25 -5 30 -103z m30 -260 c0 -8 7 -15 15 -15 10 0
15 -11 15 -35 0 -24 -5 -35 -15 -35 -8 0 -15 7 -15 15 0 8 -9 15 -20 15 -11 0
-20 -7 -20 -15 0 -8 -6 -15 -14 -15 -7 0 -16 -10 -19 -22 -5 -18 -8 -19 -21
-9 -19 16 -15 50 7 66 9 7 17 17 17 24 0 6 6 11 14 11 8 0 16 7 20 15 3 8 12
15 21 15 8 0 15 -7 15 -15z m213 -217 c28 -26 28 -27 8 -38 -12 -6 -21 -17
-21 -25 0 -8 -6 -15 -14 -15 -8 0 -16 -7 -20 -15 -3 -9 -18 -15 -36 -15 -20 0
-30 5 -30 15 0 8 7 15 15 15 8 0 15 7 15 15 0 8 10 20 22 26 l21 11 -24 19
c-19 15 -21 21 -11 28 22 14 45 7 75 -21z m-46 -164 c3 -8 11 -14 19 -14 8 0
14 -6 14 -14 0 -8 7 -16 15 -20 8 -3 15 -12 15 -21 0 -8 -7 -15 -15 -15 -8 0
-15 -7 -15 -15 0 -10 -11 -15 -35 -15 -24 0 -35 5 -35 15 0 8 6 15 14 15 23 0
27 28 5 35 -10 4 -19 13 -19 21 0 8 -7 14 -15 14 -14 0 -21 21 -10 32 10 9 57
-4 62 -18z m-247 -192 c0 -5 14 -18 31 -31 29 -22 31 -22 45 -4 10 14 16 15
22 5 14 -21 8 -45 -20 -74 -28 -31 -38 -35 -38 -15 0 6 -16 25 -35 41 -37 32
-50 86 -20 86 8 0 15 -4 15 -8z m858 -15 c2 -10 -3 -17 -11 -17 -8 0 -17 -9
-20 -21 -8 -30 -31 -18 -35 18 -2 23 1 33 15 36 30 8 48 3 51 -16z m-868
-1262 c0 -8 7 -15 15 -15 8 0 15 -6 15 -14 0 -8 9 -18 20 -21 11 -3 20 -10 20
-15 0 -12 79 -90 91 -90 5 0 9 -5 9 -11 0 -6 16 -26 36 -45 20 -19 33 -34 28
-35 -5 0 1 -4 14 -9 12 -5 22 -16 22 -25 0 -8 7 -15 15 -15 8 0 15 -7 15 -15
0 -8 7 -15 16 -15 9 0 18 -9 21 -20 3 -11 12 -20 19 -20 8 0 14 -7 14 -15 0
-8 7 -15 16 -15 9 0 18 -9 21 -20 3 -11 12 -20 19 -20 8 0 14 -7 14 -15 0 -8
7 -15 15 -15 8 0 15 -7 15 -16 0 -9 9 -18 20 -21 11 -3 20 -12 20 -19 0 -8 7
-14 15 -14 8 0 15 -7 15 -15 0 -9 7 -18 15 -21 8 -4 15 -12 15 -20 0 -8 5 -14
11 -14 15 0 59 -42 59 -57 0 -7 7 -13 16 -13 9 0 18 -9 21 -20 3 -11 9 -20 14
-20 13 0 89 -75 89 -88 0 -7 7 -12 15 -12 8 0 15 -7 15 -15 0 -8 7 -15 16 -15
9 0 18 -9 21 -20 3 -11 12 -20 19 -20 8 0 14 -7 14 -15 0 -8 7 -15 15 -15 8 0
15 -7 15 -16 0 -9 9 -18 20 -21 11 -3 20 -12 20 -19 0 -8 7 -14 15 -14 8 0 15
-5 15 -11 0 -15 42 -59 58 -59 6 0 12 -7 12 -15 0 -9 7 -18 15 -21 8 -4 15
-12 15 -20 0 -8 -7 -14 -15 -14 -8 0 -15 -7 -15 -15 0 -8 -7 -15 -16 -15 -9 0
-18 -9 -21 -20 -3 -11 -12 -20 -19 -20 -8 0 -14 -7 -14 -15 0 -8 -5 -15 -11
-15 -14 0 -59 -47 -59 -61 0 -5 -6 -9 -14 -9 -8 0 -16 -7 -20 -15 -3 -8 -12
-15 -21 -15 -8 0 -15 -7 -15 -15 0 -9 -7 -18 -15 -21 -8 -4 -15 -12 -15 -20 0
-8 -9 -14 -20 -14 -11 0 -20 -7 -20 -15 0 -8 -6 -15 -14 -15 -7 0 -16 -9 -19
-20 -3 -11 -12 -20 -21 -20 -9 0 -16 -7 -16 -15 0 -8 -6 -15 -14 -15 -7 0 -16
-9 -19 -21 -8 -31 -31 -18 -35 19 l-3 32 -65 0 -64 0 0 -65 0 -65 29 0 c26 0
30 4 33 33 3 28 7 32 36 35 27 3 32 0 32 -17 0 -12 -7 -21 -15 -21 -8 0 -15
-7 -15 -15 0 -8 -9 -15 -20 -15 -11 0 -20 -7 -20 -15 0 -9 -7 -18 -15 -21 -8
-4 -15 -12 -15 -20 0 -8 -5 -14 -11 -14 -14 0 -59 -47 -59 -61 0 -5 -9 -9 -20
-9 -11 0 -20 -7 -20 -15 0 -8 -7 -15 -15 -15 -8 0 -15 -5 -15 -11 0 -14 -47
-59 -61 -59 -5 0 -9 -6 -9 -12 0 -16 -44 -58 -59 -58 -6 0 -11 -7 -11 -15 0
-8 -9 -15 -20 -15 -16 0 -20 6 -18 33 l3 32 -65 0 -65 0 1 -40 c1 -65 12 -95
34 -95 12 0 20 7 21 18 1 9 2 24 3 32 1 10 12 15 35 15 39 0 55 -23 22 -32
-12 -3 -21 -12 -21 -19 0 -8 -7 -14 -15 -14 -8 0 -15 -7 -15 -16 0 -9 -9 -18
-20 -21 -11 -3 -20 -12 -20 -19 0 -8 -7 -14 -15 -14 -8 0 -15 -7 -15 -15 0 -8
-5 -15 -11 -15 -11 0 -59 -46 -59 -56 0 -10 -45 -43 -57 -44 -26 0 -14 55 17
80 37 31 38 48 3 52 -47 5 -35 33 14 33 23 1 45 4 48 7 4 3 9 49 12 102 l6 96
98 0 99 0 0 68 c0 37 3 84 7 105 l6 38 96 -3 96 -3 5 100 5 100 103 3 102 3 0
99 0 99 103 3 102 3 3 117 2 117 -102 3 -103 3 0 100 0 100 -102 3 -103 3 0
98 c0 81 -3 100 -16 105 -9 3 -54 6 -100 6 l-84 0 0 100 0 100 -27 1 c-16 0
-53 2 -83 4 -30 1 -66 3 -78 4 -23 1 -24 3 -22 84 4 123 6 115 -47 119 -53 3
-68 27 -24 38 25 6 42 30 22 30 -6 0 -11 6 -11 13 0 7 -9 18 -20 25 -19 12
-27 42 -13 55 12 13 33 7 33 -8z m28 -497 l3 -98 62 0 c34 0 79 -3 99 -6 l37
-7 3 -96 3 -96 98 -3 c83 -2 97 -5 98 -20 1 -9 2 -55 3 -102 l1 -85 100 -5
100 -5 3 -82 3 -83 -105 0 -105 0 -3 -102 -3 -103 -85 -1 c-47 -1 -93 -2 -102
-3 -16 -1 -18 -13 -18 -101 l0 -100 -99 0 c-81 0 -100 -3 -105 -16 -3 -9 -6
-54 -6 -100 l0 -85 -32 3 -33 3 1 60 c3 133 4 135 19 135 8 0 15 5 15 11 0 15
42 59 58 59 6 0 12 5 12 11 0 15 42 59 58 59 6 0 12 7 12 15 0 8 6 15 14 15 8
0 18 9 21 20 3 11 13 20 21 20 8 0 14 7 14 15 0 8 7 15 15 15 8 0 15 6 15 14
0 7 9 16 20 19 11 3 20 12 20 21 0 9 4 16 9 16 14 0 61 45 61 59 0 6 7 11 15
11 8 0 15 7 15 15 0 8 7 15 15 15 9 0 18 7 21 15 4 8 12 15 20 15 8 0 14 7 14
15 0 8 9 19 21 25 20 11 19 12 -15 45 -20 19 -36 38 -36 44 0 6 -5 11 -11 11
-14 0 -59 47 -59 61 0 5 -7 9 -15 9 -8 0 -15 6 -15 14 0 7 -9 16 -20 19 -11 3
-20 12 -20 21 0 9 -7 16 -15 16 -8 0 -15 4 -15 10 0 12 -48 60 -60 60 -6 0
-10 4 -10 10 0 5 -45 55 -100 110 l-100 100 0 96 0 95 33 -3 32 -3 3 -97z m38
-264 c27 -28 32 -74 9 -74 -8 0 -15 7 -15 15 0 25 -23 17 -57 -21 -17 -20 -36
-33 -42 -30 -15 10 -6 61 13 64 9 2 16 10 16 18 0 8 6 14 14 14 7 0 16 9 19
20 7 26 15 25 43 -6z m194 -198 c0 -8 9 -18 20 -21 11 -3 20 -11 20 -17 0 -5
-9 -12 -20 -15 -11 -3 -20 -12 -20 -19 0 -8 -7 -14 -15 -14 -8 0 -15 -7 -15
-15 0 -10 -11 -15 -35 -15 -24 0 -35 5 -35 15 0 8 7 15 15 15 8 0 15 6 15 14
0 7 9 16 20 19 26 7 26 23 0 37 -27 14 -16 30 21 30 18 0 29 -5 29 -14z m561
-56 c16 -9 19 -22 19 -85 0 -65 -3 -76 -21 -85 -24 -13 -49 2 -49 31 0 9 -7
25 -17 34 -15 15 -17 15 -25 1 -13 -24 -35 -19 -42 8 -8 32 9 75 31 82 10 3
25 9 33 14 21 12 48 12 71 0z m469 -60 c0 -15 -7 -20 -29 -20 -17 0 -33 5 -36
10 -11 17 5 30 36 30 22 0 29 -5 29 -20z m-1055 -65 c14 -14 25 -30 25 -35 0
-6 7 -10 15 -10 21 0 19 -15 -9 -44 -24 -27 -60 -34 -72 -14 -4 6 0 16 9 23
23 16 22 21 -13 55 -16 16 -30 34 -30 40 0 20 49 10 75 -15z m1053 -8 c3 -15
-2 -18 -30 -15 -22 2 -34 9 -36 21 -3 15 2 18 30 15 22 -2 34 -9 36 -21z
m-1269 -224 c1 -19 31 -16 31 3 0 9 7 14 17 12 26 -5 28 -59 2 -65 -10 -3 -19
-12 -19 -19 0 -8 -7 -14 -15 -14 -8 0 -15 6 -15 14 0 8 -9 18 -20 21 -11 3
-20 13 -20 21 0 8 -7 14 -15 14 -15 0 -22 50 -9 63 9 8 63 -35 63 -50z m26
-1307 c52 -52 95 -99 95 -105 0 -6 7 -11 15 -11 8 0 15 -7 15 -15 0 -8 7 -15
16 -15 9 0 18 -9 21 -20 3 -11 12 -20 19 -20 8 0 14 -7 14 -15 0 -8 7 -15 15
-15 8 0 15 -7 15 -16 0 -9 9 -18 20 -21 11 -3 20 -12 20 -19 0 -8 7 -14 15
-14 8 0 15 -9 15 -20 0 -11 7 -20 15 -20 9 0 18 -7 21 -15 4 -8 12 -15 20 -15
8 0 14 -5 14 -11 0 -7 31 -42 69 -78 46 -45 67 -71 62 -80 -5 -7 -14 -12 -22
-11 -36 5 -39 0 -39 -65 l0 -65 65 0 65 0 0 29 c0 26 -4 30 -32 33 -29 3 -33
7 -36 34 -4 38 26 58 35 24 3 -11 12 -20 19 -20 8 0 14 -7 14 -15 0 -8 7 -15
16 -15 9 0 18 -9 21 -20 3 -11 12 -20 19 -20 8 0 14 -7 14 -15 0 -8 6 -15 14
-15 8 0 18 -9 21 -20 3 -11 13 -20 21 -20 8 0 14 -7 14 -15 0 -8 7 -15 15 -15
8 0 15 -6 15 -14 0 -8 9 -18 20 -21 11 -3 20 -10 20 -15 0 -5 29 -38 65 -73
36 -35 65 -69 65 -75 0 -7 5 -12 11 -12 14 0 59 -47 59 -61 0 -5 7 -9 15 -9 8
0 15 -7 15 -15 0 -8 -7 -15 -15 -15 -8 0 -15 -9 -15 -20 0 -11 -5 -20 -11 -20
-7 0 -34 -22 -60 -50 -26 -27 -53 -50 -58 -50 -6 0 -11 -4 -11 -9 0 -14 -45
-61 -59 -61 -6 0 -11 16 -11 35 l0 35 -64 0 -64 0 -5 -57 c-2 -32 -3 -61 0
-65 2 -5 17 -8 33 -8 25 0 29 4 32 33 3 28 6 32 33 32 20 0 31 -5 33 -17 2
-11 -3 -18 -12 -18 -9 0 -16 -7 -16 -15 0 -8 -9 -15 -20 -15 -13 0 -20 -7 -20
-20 0 -11 -7 -20 -15 -20 -8 0 -15 -7 -15 -15 0 -8 -6 -15 -13 -15 -6 0 -25
-16 -41 -35 -38 -45 -59 -46 -54 -2 l3 32 -67 3 -68 3 0 -71 0 -71 27 3 c19 2
28 -2 31 -14 2 -11 -3 -18 -12 -18 -9 0 -16 -5 -16 -11 0 -14 -47 -59 -61 -59
-5 0 -9 -7 -9 -15 0 -9 -9 -15 -21 -15 -18 0 -21 4 -16 29 6 26 3 30 -21 35
-15 2 -46 5 -69 5 l-43 1 0 -70 0 -70 29 0 c26 0 30 4 33 33 2 25 8 33 26 35
13 2 30 1 38 -2 17 -6 7 -36 -12 -36 -8 0 -14 -7 -14 -15 0 -8 -9 -15 -20 -15
-11 0 -20 -7 -20 -15 0 -8 -7 -15 -15 -15 -8 0 -15 -9 -15 -20 0 -11 -4 -20
-9 -20 -14 0 -61 -45 -61 -59 0 -6 -6 -11 -14 -11 -8 0 -16 -7 -20 -15 -3 -8
-12 -15 -21 -15 -8 0 -15 -7 -15 -15 0 -9 -7 -18 -15 -21 -8 -4 -15 -12 -15
-20 0 -8 -9 -14 -20 -14 -11 0 -20 -7 -20 -15 0 -8 -7 -15 -15 -15 -8 0 -15
-6 -15 -14 0 -7 -9 -16 -20 -19 -11 -3 -20 -12 -20 -21 0 -9 -7 -16 -15 -16
-8 0 -15 -6 -15 -14 0 -7 -9 -16 -20 -19 -11 -3 -20 -13 -20 -22 0 -9 -6 -15
-12 -13 -16 5 -24 68 -9 68 13 0 61 48 61 60 0 6 -13 10 -29 10 -32 0 -51 18
-32 30 7 4 30 5 52 3 32 -3 39 -1 41 14 0 10 2 23 3 28 2 6 3 45 4 88 l1 77
100 0 100 0 1 48 c1 26 2 61 4 77 1 17 3 40 4 53 1 21 4 22 101 22 l100 0 0
100 c0 73 3 100 13 101 6 1 53 2 102 3 l90 1 5 100 5 100 87 1 c49 1 95 4 103
8 13 5 15 24 13 118 l-3 113 -100 5 -100 5 3 97 3 96 -40 7 c-22 4 -57 6 -78
5 -21 -1 -50 -2 -65 -1 l-28 1 0 100 0 100 -100 0 -100 0 0 105 0 104 -102 3
-103 3 0 100 0 100 -49 5 c-59 6 -76 30 -22 30 29 0 36 4 36 20 0 11 -7 20
-15 20 -8 0 -15 7 -15 15 0 8 -7 15 -15 15 -8 0 -15 3 -16 8 0 4 -2 16 -4 26
-4 19 1 36 11 36 2 0 47 -42 99 -94z m-47 -410 c2 -50 8 -96 14 -104 8 -9 29
-13 62 -11 28 1 68 1 89 1 l37 -2 0 -94 c0 -65 4 -97 13 -104 7 -6 53 -12 103
-14 l89 -3 -2 -85 c-2 -47 1 -91 6 -99 7 -10 32 -15 83 -17 40 -1 83 -3 96 -3
22 -1 23 -4 20 -83 l-3 -83 -102 -3 -103 -3 0 -99 0 -99 -102 -3 -103 -3 -3
-97 -3 -98 -89 0 c-116 0 -120 -4 -120 -121 l0 -90 -32 3 c-33 3 -33 4 -31 53
1 28 2 74 2 103 1 39 5 52 16 52 8 0 15 6 15 14 0 7 9 16 20 19 11 3 20 12 20
21 0 9 7 16 15 16 8 0 15 7 15 15 0 8 6 15 13 15 15 0 57 44 57 59 0 6 5 11
11 11 5 0 32 23 58 50 26 28 53 50 60 50 6 0 11 7 11 15 0 8 6 15 14 15 7 0
16 9 19 20 3 11 12 20 21 20 9 0 16 7 16 15 0 8 7 15 15 15 8 0 15 6 15 14 0
8 9 18 20 21 11 3 20 13 20 21 0 8 7 14 15 14 8 0 15 5 15 11 0 7 8 18 18 25
16 13 16 15 0 28 -10 7 -18 18 -18 25 0 6 -7 11 -15 11 -8 0 -15 5 -15 11 0 6
-22 32 -50 59 -27 27 -50 53 -50 59 0 6 -5 11 -11 11 -15 0 -59 42 -59 58 0 6
-4 12 -9 12 -14 0 -61 45 -61 59 0 6 -7 11 -15 11 -8 0 -15 7 -15 15 0 8 -6
15 -14 15 -8 0 -18 9 -21 20 -3 11 -13 20 -21 20 -8 0 -14 5 -14 11 0 5 -23
32 -50 58 l-50 48 0 90 c0 49 3 93 7 97 4 4 19 6 33 4 24 -3 25 -5 28 -92z
m32 -272 c0 -8 7 -14 15 -14 10 0 15 -11 15 -35 0 -39 -14 -46 -30 -15 -6 11
-15 20 -21 20 -6 0 -13 -9 -16 -20 -3 -11 -12 -20 -19 -20 -8 0 -14 -7 -14
-15 0 -15 -25 -21 -33 -7 -10 14 6 62 19 62 8 0 14 7 14 15 0 8 7 15 15 15 8
0 19 9 25 20 12 22 30 18 30 -6z m211 -213 c33 -34 36 -41 13 -41 -9 0 -18 -9
-21 -20 -3 -11 -11 -20 -18 -20 -7 0 -15 -7 -19 -15 -3 -9 -18 -15 -36 -15
-20 0 -30 5 -30 15 0 8 6 15 14 15 7 0 16 9 19 20 3 11 13 20 22 20 10 0 15 6
13 18 -2 9 -8 17 -15 17 -17 0 -26 12 -18 24 12 20 46 11 76 -18z m-57 -147
c9 -3 16 -12 16 -20 0 -8 7 -14 15 -14 8 0 15 -6 15 -14 0 -8 7 -16 15 -20 8
-3 15 -12 15 -21 0 -8 -7 -15 -15 -15 -8 0 -15 -7 -15 -15 0 -10 -11 -15 -35
-15 -24 0 -35 5 -35 15 0 8 7 15 15 15 8 0 15 9 15 20 0 11 -7 20 -15 20 -8 0
-15 7 -15 15 0 8 -7 15 -15 15 -8 0 -15 6 -15 13 0 26 21 34 54 21z m-234
-219 c0 -8 7 -15 15 -15 8 0 19 -9 25 -20 14 -26 26 -25 33 1 8 29 31 19 35
-15 3 -21 -2 -29 -16 -33 -11 -3 -23 -14 -25 -25 -6 -22 -27 -16 -27 8 0 8 -6
14 -12 14 -7 0 -23 11 -35 24 -26 27 -31 76 -8 76 8 0 15 -7 15 -15z m634
-191 c22 -8 20 -19 -8 -49 -29 -31 -46 -26 -46 15 0 19 6 30 18 33 9 3 18 5
19 6 1 0 8 -2 17 -5z m-629 -1110 c14 -15 25 -31 25 -35 0 -5 4 -9 9 -9 13 0
91 -76 91 -89 0 -6 7 -11 15 -11 8 0 15 -6 15 -14 0 -7 9 -16 20 -19 11 -3 20
-12 20 -21 0 -9 7 -16 15 -16 8 0 15 -7 15 -15 0 -8 7 -15 15 -15 8 0 15 -7
15 -15 0 -8 7 -15 16 -15 9 0 18 -9 21 -20 3 -11 12 -20 19 -20 8 0 14 -7 14
-15 0 -8 7 -15 15 -15 8 0 15 -6 15 -14 0 -8 9 -18 20 -21 11 -3 20 -13 20
-21 0 -8 7 -14 15 -14 8 0 15 -7 15 -15 0 -8 5 -15 11 -15 14 0 59 -47 59 -61
0 -5 5 -9 11 -9 15 0 59 -42 59 -57 0 -7 7 -13 15 -13 8 0 15 -7 15 -15 0 -8
5 -15 11 -15 14 0 59 -47 59 -61 0 -5 5 -9 11 -9 15 0 59 -42 59 -57 0 -7 7
-13 15 -13 8 0 15 -7 15 -15 0 -8 5 -15 11 -15 14 0 59 -47 59 -61 0 -5 5 -9
11 -9 15 0 59 -42 59 -57 0 -7 7 -13 15 -13 8 0 15 -7 15 -15 0 -8 5 -15 11
-15 14 0 59 -47 59 -61 0 -5 4 -9 9 -9 6 0 22 -11 36 -24 27 -25 26 -46 -1
-46 -8 0 -14 -7 -14 -15 0 -8 -7 -15 -15 -15 -8 0 -15 -5 -15 -11 0 -15 -42
-59 -57 -59 -7 0 -13 -5 -13 -12 0 -13 -76 -88 -90 -88 -6 0 -10 -6 -10 -12 0
-16 -44 -58 -59 -58 -6 0 -11 -7 -11 -15 0 -9 -7 -18 -15 -21 -8 -4 -15 -12
-15 -20 0 -8 -5 -14 -10 -14 -6 0 -55 -45 -110 -100 -54 -55 -103 -100 -109
-100 -6 0 -11 -6 -11 -12 0 -16 -44 -58 -59 -58 -6 0 -11 -4 -11 -9 0 -14 -45
-61 -59 -61 -6 0 -11 -7 -11 -15 0 -8 -6 -15 -14 -15 -7 0 -16 -9 -19 -21 -3
-12 -10 -18 -16 -14 -6 3 -11 1 -11 -6 0 -14 -46 -59 -61 -59 -5 0 -9 -6 -9
-12 0 -16 -44 -58 -59 -58 -6 0 -11 -5 -11 -11 0 -12 -177 -189 -190 -189 -4
0 -10 11 -12 24 -4 17 3 32 24 51 35 33 35 43 2 51 -40 10 -27 38 21 42 22 2
43 9 47 15 4 7 8 51 8 100 l0 87 100 0 100 0 0 100 0 99 103 3 102 3 2 60 c1
33 2 79 2 103 l1 42 100 0 100 0 0 100 0 99 98 3 97 3 0 115 0 115 -97 3 -98
3 0 99 0 100 -100 0 -100 0 -1 43 c-1 23 -1 68 0 100 2 56 2 57 -26 58 -15 0
-62 1 -103 2 l-75 2 -5 100 -5 100 -97 3 -98 3 0 77 c0 114 -4 122 -56 122
-45 0 -67 16 -43 31 8 5 24 9 37 9 13 0 22 6 22 15 0 8 -7 15 -15 15 -8 0 -15
7 -15 15 0 8 -6 15 -14 15 -8 0 -16 13 -18 30 -7 49 10 54 47 14z m16 -416 c1
-18 1 -49 0 -68 0 -19 3 -48 7 -65 l8 -30 95 -5 94 -5 5 -95 5 -95 97 -3 97
-3 3 -102 3 -102 89 -2 c49 -1 96 -5 103 -7 10 -4 13 -25 11 -83 l-3 -78 -102
-3 -103 -3 0 -99 0 -100 -100 0 -99 0 -3 -102 -3 -102 -93 -2 c-52 -2 -97 -5
-100 -9 -4 -3 -7 -45 -8 -93 -1 -48 -3 -90 -3 -94 -1 -5 -14 -8 -31 -8 -29 0
-30 2 -31 43 0 23 -1 69 -2 101 -2 49 1 60 16 64 9 2 17 11 17 18 0 8 7 14 15
14 8 0 15 7 15 15 0 8 7 15 16 15 9 0 18 9 21 20 3 11 12 20 19 20 8 0 14 6
14 14 0 8 9 18 20 21 11 3 20 13 20 21 0 8 7 14 15 14 8 0 15 7 15 15 0 8 7
15 15 15 8 0 15 6 15 14 0 7 9 16 20 19 11 3 20 12 20 21 0 9 7 16 15 16 8 0
15 7 15 15 0 8 7 15 16 15 9 0 18 9 21 20 3 11 12 20 19 20 8 0 14 7 14 15 0
8 7 15 15 15 8 0 15 7 15 15 0 8 7 15 16 15 9 0 18 9 21 20 3 11 12 20 19 20
8 0 14 7 14 15 0 8 7 15 15 15 8 0 15 7 15 15 0 9 -7 18 -15 21 -8 4 -15 12
-15 20 0 8 -5 14 -10 14 -13 0 -115 103 -123 124 -4 9 -13 16 -22 16 -8 0 -15
7 -15 15 0 8 -4 15 -9 15 -14 0 -61 45 -61 59 0 6 -4 11 -9 11 -13 0 -91 76
-91 89 0 6 -4 11 -10 11 -13 0 -90 77 -90 90 0 6 -7 10 -15 10 -16 0 -17 3
-17 75 1 132 -1 125 32 125 27 0 30 -3 31 -32z m39 -323 c0 -8 7 -15 15 -15
10 0 15 -11 15 -35 0 -39 -14 -46 -30 -15 -6 11 -15 20 -19 20 -5 0 -11 -9
-14 -20 -3 -11 -12 -20 -21 -20 -9 0 -16 -7 -16 -16 0 -9 -7 -14 -17 -12 -16
3 -19 16 -14 58 1 6 8 10 16 10 8 0 15 7 15 15 0 8 7 15 15 15 8 0 15 7 15 15
0 8 9 15 20 15 11 0 20 -7 20 -15z m216 -210 l27 -25 -27 -25 c-15 -14 -31
-25 -35 -25 -5 0 -11 -8 -13 -18 -4 -15 -12 -18 -37 -14 -31 4 -45 32 -16 32
8 0 15 7 15 15 0 8 6 15 14 15 23 0 29 31 6 37 -11 3 -20 12 -20 19 0 24 56
16 86 -11z m-46 -160 c0 -8 7 -15 15 -15 8 0 15 -7 15 -16 0 -9 9 -18 20 -21
26 -7 25 -9 -9 -43 -16 -17 -36 -27 -47 -25 -10 2 -22 4 -26 4 -17 2 -7 29 12
34 24 6 27 27 4 27 -9 0 -18 9 -21 20 -3 11 -12 20 -19 20 -8 0 -14 7 -14 15
0 10 11 15 35 15 24 0 35 -5 35 -15z m105 5 c3 -5 1 -10 -4 -10 -6 0 -11 5
-11 10 0 6 2 10 4 10 3 0 8 -4 11 -10z m-328 -220 c32 -30 53 -38 53 -20 0 6
7 10 15 10 10 0 15 -11 15 -35 0 -20 -5 -35 -11 -35 -7 0 -17 -8 -24 -17 -12
-16 -15 -15 -39 7 -14 14 -26 30 -26 36 0 7 -8 14 -18 16 -13 4 -17 13 -16 34
1 16 3 30 3 32 3 8 20 -2 48 -28z m153 -1420 c0 -5 5 -10 11 -10 13 0 129
-116 129 -130 0 -6 7 -10 15 -10 8 0 15 -7 15 -15 0 -8 4 -15 9 -15 14 0 61
-45 61 -59 0 -6 7 -11 15 -11 8 0 15 -7 15 -15 0 -8 7 -15 16 -15 9 0 18 -9
21 -20 3 -11 12 -20 19 -20 8 0 14 -7 14 -15 0 -8 5 -15 11 -15 15 0 59 -42
59 -57 0 -7 5 -13 10 -13 13 0 90 -77 90 -90 0 -5 5 -10 12 -10 13 0 88 -76
88 -90 0 -6 5 -10 11 -10 15 0 59 -42 59 -57 0 -7 5 -13 10 -13 13 0 90 -77
90 -90 0 -5 5 -10 10 -10 6 0 37 -27 70 -60 57 -57 67 -80 34 -80 -8 0 -14 -7
-14 -15 0 -8 -7 -15 -15 -15 -8 0 -15 -7 -15 -15 0 -8 -7 -15 -15 -15 -8 0
-15 -7 -15 -16 0 -9 -9 -18 -20 -21 -11 -3 -20 -12 -20 -19 0 -8 -7 -14 -15
-14 -8 0 -15 -6 -15 -12 0 -16 -44 -58 -59 -58 -6 0 -11 -7 -11 -15 0 -8 -6
-15 -14 -15 -7 0 -16 -9 -19 -20 -3 -11 -12 -20 -21 -20 -9 0 -16 -7 -16 -15
0 -8 -6 -15 -14 -15 -7 0 -16 -9 -19 -21 -3 -12 -10 -18 -16 -15 -5 4 -12 -3
-16 -14 -3 -11 -13 -20 -21 -20 -8 0 -14 -5 -14 -12 0 -13 -48 -58 -62 -58 -4
0 -8 -7 -8 -15 0 -8 -7 -15 -15 -15 -8 0 -15 -7 -15 -15 0 -8 -6 -15 -14 -15
-7 0 -16 -9 -19 -20 -3 -11 -12 -20 -21 -20 -9 0 -16 -7 -16 -15 0 -8 -6 -15
-14 -15 -7 0 -16 -9 -19 -20 -3 -11 -12 -20 -21 -20 -9 0 -16 -7 -16 -15 0 -8
-7 -15 -15 -15 -8 0 -15 -6 -15 -14 0 -8 -9 -18 -20 -21 -11 -3 -20 -13 -20
-21 0 -8 -6 -14 -14 -14 -7 0 -16 -9 -19 -21 -3 -12 -10 -18 -16 -14 -6 3 -11
-1 -11 -10 0 -9 -9 -19 -20 -22 -11 -3 -20 -12 -20 -19 0 -8 -7 -14 -15 -14
-8 0 -15 -7 -15 -15 0 -8 -7 -15 -15 -15 -8 0 -15 -7 -15 -16 0 -9 -9 -18 -20
-21 -11 -3 -20 -12 -20 -19 0 -8 -7 -14 -15 -14 -8 0 -15 -5 -15 -11 0 -14
-47 -59 -61 -59 -5 0 -9 -5 -9 -10 0 -6 -18 -28 -40 -50 -42 -42 -60 -50 -60
-26 0 8 -3 22 -6 31 -5 11 0 18 15 22 11 3 21 10 21 16 0 5 8 16 17 23 20 14
16 22 -13 27 -59 9 -51 37 11 37 53 0 55 5 55 116 l0 84 100 0 99 0 3 103 3
102 101 3 102 3 0 57 c0 31 1 76 1 100 l1 42 100 0 100 0 0 100 0 100 100 0
100 0 0 120 0 120 -100 0 -100 0 0 100 0 100 -100 0 c-73 0 -100 3 -101 13 0
6 -1 53 -2 102 l-2 90 -90 1 c-49 1 -96 2 -102 3 -10 1 -13 28 -13 101 l0 100
-100 0 -99 0 -3 98 -3 97 -42 3 c-23 2 -47 10 -53 17 -13 15 -13 15 35 30 21
6 19 18 -9 48 -27 29 -35 55 -23 74 6 9 38 -17 102 -82 52 -52 95 -99 95 -105z
m-140 -247 c1 -66 8 -155 14 -160 3 -3 38 -6 78 -8 131 -4 117 8 120 -102 l3
-98 98 -3 97 -3 0 -99 0 -99 103 -3 102 -3 3 -82 3 -81 -53 -6 c-29 -3 -75 -4
-103 -3 l-50 2 -3 -102 -3 -103 -99 0 -100 0 0 -100 0 -100 -94 0 c-63 0 -97
-4 -102 -12 -4 -6 -8 -49 -9 -95 -2 -92 -9 -108 -45 -95 -22 8 -23 13 -23 103
0 79 3 95 17 97 9 2 16 8 16 13 0 12 119 129 131 129 5 0 9 7 9 15 0 8 7 15
15 15 8 0 15 5 15 10 0 13 77 90 90 90 6 0 10 5 10 11 0 14 47 59 61 59 5 0 9
4 9 9 0 14 45 61 59 61 6 0 11 7 11 15 0 8 7 15 15 15 8 0 15 7 15 15 0 9 7
18 15 21 8 4 15 12 15 20 0 8 -7 14 -15 14 -8 0 -15 7 -15 15 0 8 -7 15 -15
15 -8 0 -15 7 -15 16 0 9 -9 18 -20 21 -11 3 -20 12 -20 19 0 8 -7 14 -15 14
-8 0 -15 7 -15 15 0 8 -7 15 -15 15 -8 0 -15 6 -15 14 0 8 -9 18 -20 21 -11 3
-20 13 -20 21 0 8 -6 14 -14 14 -8 0 -18 9 -21 20 -3 11 -13 20 -21 20 -8 0
-14 7 -14 15 0 8 -7 15 -15 15 -8 0 -15 7 -15 15 0 8 -7 15 -15 15 -8 0 -15 6
-15 14 0 8 -9 18 -20 21 -11 3 -20 13 -20 21 0 8 -4 14 -10 14 -12 0 -60 48
-60 60 0 6 -7 10 -15 10 -8 0 -15 7 -15 15 0 8 -7 15 -15 15 -15 0 -17 8 -17
90 0 124 -1 120 32 120 28 0 30 -3 30 -37z m46 -325 c26 -25 33 -78 10 -78 -8
0 -16 7 -20 15 -7 19 -26 20 -26 1 0 -8 -9 -18 -20 -21 -11 -3 -20 -13 -20
-21 0 -8 -7 -14 -15 -14 -10 0 -15 11 -15 35 0 24 5 35 15 35 8 0 15 7 15 15
0 8 6 15 14 15 7 0 16 9 19 20 7 26 14 25 43 -2z m208 -212 c31 -28 32 -32 6
-39 -11 -3 -20 -12 -20 -21 0 -9 -7 -16 -15 -16 -8 0 -15 -7 -15 -15 0 -10
-11 -15 -35 -15 -19 0 -35 4 -35 9 0 14 45 61 59 61 18 0 13 18 -9 30 -29 16
-24 30 9 30 18 0 41 -10 55 -24z m550 -42 c16 -16 22 -96 10 -141 -10 -38 -64
-38 -64 1 0 25 -17 46 -37 46 -7 0 -13 -7 -13 -15 0 -18 -12 -19 -28 -3 -16
16 -15 85 1 95 48 31 109 39 131 17z m-597 -115 c3 -10 9 -19 14 -19 4 0 20
-11 35 -25 l27 -25 -28 -26 c-18 -16 -36 -24 -53 -22 -32 4 -40 24 -12 31 26
7 26 27 0 34 -11 3 -20 12 -20 19 0 8 -7 14 -15 14 -8 0 -15 6 -15 13 0 19 4
22 35 24 19 1 29 -5 32 -18z m-217 -219 c27 -32 50 -39 50 -15 0 8 7 15 15 15
10 0 15 -11 15 -35 0 -23 -5 -35 -14 -35 -7 0 -16 -9 -19 -20 -3 -11 -10 -20
-17 -20 -7 0 -14 9 -17 20 -3 11 -12 20 -19 20 -8 0 -14 7 -14 15 0 8 -6 15
-14 15 -17 0 -24 17 -18 47 6 31 23 29 52 -7z"/>
<path d="M497 10273 c-4 -3 -7 -35 -7 -70 l0 -63 65 0 65 0 0 29 c0 30 -19 45
-45 35 -8 -4 -15 -2 -16 2 -4 46 -8 57 -20 65 -17 10 -33 11 -42 2z"/>
<path d="M697 10064 c-4 -4 -7 -36 -7 -71 l0 -63 71 0 70 0 -4 33 c-3 28 -7
32 -33 32 -25 1 -30 5 -34 35 -4 28 -10 36 -30 38 -14 2 -29 0 -33 -4z"/>
<path d="M900 9790 l0 -70 65 0 65 0 0 34 c0 32 -3 35 -32 38 -29 3 -33 7 -36
36 -3 28 -7 32 -33 32 l-29 0 0 -70z"/>
<path d="M1100 9587 c0 -73 0 -73 77 -76 57 -2 67 6 57 44 -5 19 -12 25 -34
25 -29 0 -44 21 -38 51 2 9 -9 15 -29 17 l-33 3 0 -64z"/>
<path d="M1345 9393 c4 -10 10 -26 12 -35 7 -25 43 -23 43 2 0 11 -7 20 -15
20 -8 0 -15 7 -15 15 0 8 -7 15 -16 15 -11 0 -14 -5 -9 -17z"/>
<path d="M1097 9193 c-3 -10 -5 -40 -4 -68 2 -49 3 -50 35 -53 31 -3 32 -2 32
32 0 35 1 36 36 36 34 0 35 1 32 33 -3 32 -3 32 -65 35 -52 2 -62 0 -66 -15z"/>
<path d="M680 8729 l0 -70 28 3 c22 2 28 9 32 38 4 31 8 35 33 32 22 -2 29 3
37 23 6 15 8 31 4 36 -3 5 -34 9 -70 9 l-64 0 0 -71z"/>
<path d="M460 7607 c0 -50 4 -66 16 -71 19 -7 109 -8 116 -1 2 3 3 18 0 35 -4
25 -9 30 -33 30 -24 0 -28 4 -31 33 -3 28 -7 32 -35 35 l-33 3 0 -64z"/>
<path d="M660 7395 l0 -65 70 0 70 0 0 30 c0 28 -3 30 -35 30 -33 0 -35 2 -35
35 0 33 -2 35 -35 35 l-35 0 0 -65z"/>
<path d="M1070 6980 l0 -70 64 0 c36 0 67 4 71 10 10 16 -6 59 -20 54 -7 -3
-22 -1 -33 5 -14 7 -18 18 -14 40 4 30 3 31 -32 31 l-36 0 0 -70z"/>
<path d="M1325 6790 c3 -5 8 -10 11 -10 2 0 4 5 4 10 0 6 -5 10 -11 10 -5 0
-7 -4 -4 -10z"/>
<path d="M1346 6755 c4 -8 10 -15 15 -15 5 0 9 7 9 15 0 8 -7 15 -15 15 -9 0
-12 -6 -9 -15z"/>
<path d="M440 5926 c0 -68 8 -80 48 -65 16 6 22 16 22 39 0 26 3 30 29 30 21
0 30 6 34 22 9 33 1 38 -69 38 l-64 0 0 -64z"/>
<path d="M444 5033 c-12 -13 -15 -27 -10 -62 3 -24 8 -46 10 -48 2 -2 30 -5
62 -6 57 -2 59 -1 56 23 -3 28 -17 39 -42 33 -15 -4 -20 3 -25 30 -8 42 -28
53 -51 30z"/>
<path d="M640 4776 l0 -66 65 0 c36 0 65 3 65 8 -1 39 -14 52 -54 52 -22 0
-36 4 -30 8 7 4 11 18 10 32 -1 19 -7 26 -28 28 l-28 3 0 -65z"/>
<path d="M847 4633 c-4 -3 -7 -33 -7 -65 l0 -58 65 0 c62 0 65 1 65 24 0 14
-4 28 -10 31 -5 3 -10 2 -10 -3 0 -6 -10 -5 -25 1 -17 8 -25 20 -25 38 0 31
-34 51 -53 32z"/>
<path d="M1055 4432 c-6 -4 -10 -27 -9 -52 3 -86 -2 -80 63 -80 33 0 63 5 66
10 12 20 -6 48 -35 54 -18 3 -30 12 -30 21 0 8 -6 15 -12 15 -9 0 -8 3 2 10 8
5 12 11 10 13 -11 10 -46 16 -55 9z"/>
<path d="M1290 4187 c0 -20 47 -61 55 -48 8 14 -3 31 -21 31 -8 0 -14 7 -14
15 0 8 -4 15 -10 15 -5 0 -10 -6 -10 -13z"/>
<path d="M1049 3983 c-2 -52 0 -115 5 -120 3 -3 17 -3 31 1 21 5 24 11 20 35
-5 29 9 40 55 45 8 0 16 11 18 22 4 25 -19 34 -85 34 -34 0 -43 -4 -44 -17z"/>
<path d="M840 3725 l0 -65 29 0 c26 0 30 4 33 33 3 28 7 32 34 35 25 2 33 9
37 27 2 14 2 27 -1 30 -3 3 -34 5 -69 5 l-63 0 0 -65z"/>
<path d="M640 3525 l0 -65 30 0 c17 0 30 5 30 10 0 6 -6 10 -12 10 -9 0 -9 3
-2 8 6 4 13 15 17 25 4 11 17 17 37 17 27 0 30 3 30 30 l0 30 -65 0 -65 0 0
-65z"/>
<path d="M435 3380 c-6 -10 3 -109 12 -122 7 -13 30 -9 43 7 9 11 9 15 1 15
-7 0 -9 5 -4 13 4 6 8 17 8 22 0 6 14 9 32 8 26 -1 32 3 37 23 4 14 4 29 1 34
-8 13 -122 13 -130 0z"/>
<path d="M435 2437 c-4 -18 -5 -49 -3 -68 l3 -34 59 -3 c32 -2 62 1 67 5 4 4
5 21 2 36 -5 25 -10 28 -34 25 -25 -4 -29 -1 -35 26 -12 55 -50 63 -59 13z"/>
<path d="M640 2199 l0 -69 66 0 65 0 -3 28 c-2 22 -9 28 -38 32 -32 5 -35 8
-33 38 1 18 -3 32 -10 33 -7 0 -20 2 -29 4 -16 3 -18 -5 -18 -66z"/>
<path d="M840 1995 l0 -65 63 0 c35 0 66 2 69 5 3 3 3 16 1 30 -4 18 -12 25
-37 27 -27 3 -31 7 -34 36 -3 28 -7 32 -33 32 l-29 0 0 -65z"/>
<path d="M1049 1848 c-2 -21 -2 -92 0 -110 1 -15 11 -17 61 -17 65 1 75 8 66
44 -5 21 -11 24 -36 19 -25 -6 -30 -3 -35 19 -4 14 -4 30 -1 35 3 5 -4 12 -17
16 -32 8 -37 8 -38 -6z"/>
<path d="M1298 1585 c17 -38 20 -39 42 -25 12 7 9 13 -13 34 -38 36 -47 32
-29 -9z"/>
<path d="M1049 1413 c-3 -29 0 -126 4 -129 3 -3 16 -2 30 1 20 5 25 12 23 38
-1 29 2 32 31 35 32 3 52 30 38 52 -7 11 -125 14 -126 3z"/>
<path d="M840 1151 c0 -63 8 -76 40 -66 14 4 20 15 20 36 0 29 6 33 48 29 18
-1 22 4 22 29 l0 31 -65 0 -65 0 0 -59z"/>
<path d="M640 945 c0 -63 1 -65 26 -65 21 0 25 4 21 20 -3 11 -1 20 4 20 5 0
9 6 9 14 0 9 12 16 33 18 27 2 33 8 35 31 l3 27 -65 0 -66 0 0 -65z"/>
<path d="M444 803 c-6 -2 -10 -14 -8 -26 13 -90 15 -97 34 -97 14 0 20 7 20
24 0 42 9 53 39 48 30 -4 45 15 35 43 -5 11 -20 14 -58 13 -28 0 -56 -3 -62
-5z"/>
<path d="M620 13064 c0 -11 8 -14 32 -12 46 4 49 28 4 28 -26 0 -36 -4 -36
-16z"/>
<path d="M860 13070 c0 -5 9 -14 20 -20 11 -6 20 -17 20 -25 0 -8 7 -15 15
-15 8 0 15 -7 15 -15 0 -8 5 -15 11 -15 14 0 59 -47 59 -61 0 -5 7 -9 15 -9 8
0 15 -6 15 -14 0 -8 9 -18 20 -21 11 -3 20 -13 20 -21 0 -8 7 -14 15 -14 8 0
15 -4 15 -10 0 -12 48 -60 60 -60 6 0 10 -7 10 -15 0 -8 7 -15 15 -15 8 0 15
-6 15 -14 0 -31 23 -27 55 9 19 20 38 34 44 30 6 -3 11 -26 11 -51 l0 -45 47
3 c34 2 49 8 51 19 4 21 -40 67 -72 75 -27 6 -37 34 -12 34 7 0 16 9 19 21 3
12 10 18 16 15 5 -4 12 3 16 14 3 11 13 20 21 20 10 0 14 -13 14 -49 0 -48 1
-49 33 -53 54 -6 67 0 67 33 0 19 -5 29 -15 29 -8 0 -15 7 -15 15 0 8 -14 18
-32 23 -33 8 -51 32 -25 32 8 0 17 9 20 20 3 11 12 20 21 20 9 0 16 7 16 15 0
8 7 15 15 15 11 0 15 -12 15 -51 l0 -50 53 3 c47 3 52 5 50 25 -3 29 -43 70
-72 75 -31 4 -39 28 -12 35 12 3 21 12 21 19 0 8 6 14 14 14 7 0 16 9 19 20 5
20 0 20 -359 20 -227 0 -364 -4 -364 -10z m348 -55 c0 -15 -8 -30 -19 -36 -11
-5 -19 -16 -19 -24 0 -8 -7 -15 -15 -15 -8 0 -15 -7 -15 -15 0 -8 -9 -15 -20
-15 -11 0 -20 6 -20 14 0 8 -7 16 -15 20 -9 3 -15 18 -15 36 0 20 5 30 15 30
8 0 15 -7 15 -15 0 -8 9 -15 20 -15 11 0 20 7 20 15 0 8 7 15 15 15 8 0 15 7
15 15 0 8 8 15 19 15 13 0 19 -7 19 -25z m72 16 c0 -11 44 -61 52 -61 3 0 8 9
11 21 7 26 31 20 35 -9 2 -14 -8 -33 -28 -53 -30 -31 -31 -31 -37 -10 -3 11
-9 21 -14 21 -4 0 -19 11 -33 24 -32 29 -36 76 -6 76 11 0 20 -4 20 -9z"/>
<path d="M1618 13025 l4 -55 49 0 c48 0 49 1 49 30 0 21 -5 30 -16 30 -9 0
-18 9 -21 20 -3 11 -13 20 -23 20 -10 0 -24 2 -32 5 -10 4 -12 -7 -10 -50z"/>
<path d="M1753 13073 c15 -2 37 -2 50 0 12 2 0 4 -28 4 -27 0 -38 -2 -22 -4z"/>
<path d="M527 12873 c-4 -3 -7 -30 -7 -60 0 -48 3 -54 26 -63 14 -6 43 -10 65
-10 38 0 39 1 39 34 0 32 -3 35 -32 38 -29 3 -33 7 -36 36 -3 26 -8 32 -26 32
-12 0 -26 -3 -29 -7z"/>
<path d="M930 12790 c0 -49 1 -50 29 -50 21 0 32 6 36 20 3 11 12 19 18 17 7
-1 13 12 15 31 l3 32 -50 0 -51 0 0 -50z"/>
<path d="M720 12606 c0 -46 4 -66 13 -67 6 0 35 -2 64 -4 57 -5 67 2 57 40 -5
19 -12 25 -35 25 -29 0 -30 2 -33 50 -1 9 -13 16 -33 18 l-33 3 0 -65z"/>
<path d="M1130 12581 c0 -47 2 -51 24 -51 29 0 75 42 79 72 2 21 -2 23 -50 26
l-53 3 0 -50z"/>
<path d="M929 12448 c-1 -24 -1 -93 0 -105 1 -9 21 -13 66 -13 l65 0 0 29 c0
26 -4 30 -32 33 -29 3 -33 7 -36 36 -3 28 -7 32 -33 32 -16 0 -29 -5 -30 -12z"/>
<path d="M1640 12060 c0 -33 4 -50 13 -50 29 0 57 13 57 26 0 8 6 14 14 14 14
0 29 37 20 52 -3 4 -27 8 -55 8 l-49 0 0 -50z"/>
<path d="M1385 11980 c16 -31 45 -41 45 -15 0 8 -7 15 -15 15 -8 0 -15 7 -15
15 0 8 -7 15 -15 15 -14 0 -14 -3 0 -30z"/>
<path d="M1640 11860 c0 -27 3 -50 8 -51 4 -1 25 -2 47 -2 38 -2 40 -1 43 31
2 23 -1 32 -12 32 -8 0 -18 9 -21 20 -4 14 -15 20 -36 20 -28 0 -29 -1 -29
-50z"/>
<path d="M918 11563 c-5 -80 0 -95 30 -91 21 2 28 10 32 33 4 25 10 30 38 33
29 3 32 6 32 38 l0 34 -64 0 -64 0 -4 -47z"/>
<path d="M1120 11350 l0 -50 50 0 c49 0 50 1 50 30 0 19 -5 30 -14 30 -8 0
-18 9 -21 20 -4 14 -15 20 -36 20 -28 0 -29 -1 -29 -50z"/>
<path d="M1290 11210 c0 -48 1 -50 29 -50 20 0 30 6 34 20 3 11 12 20 21 20
11 0 16 9 16 30 0 29 -1 30 -50 30 l-50 0 0 -50z"/>
<path d="M1187 11209 c-3 -12 -10 -18 -17 -14 -7 4 -14 -2 -17 -14 -3 -12 -12
-21 -19 -21 -8 0 -14 -7 -14 -15 0 -8 -9 -15 -20 -15 -13 0 -20 -7 -20 -20 0
-11 -5 -20 -11 -20 -5 0 -48 -38 -94 -85 -47 -47 -89 -85 -95 -85 -5 0 -10 -7
-10 -15 0 -8 -7 -15 -15 -15 -8 0 -15 -6 -15 -14 0 -7 -9 -16 -20 -19 -11 -3
-20 -12 -20 -21 0 -9 -7 -16 -15 -16 -8 0 -15 -6 -15 -14 0 -7 -9 -16 -20 -19
-11 -3 -20 -12 -20 -21 0 -9 -7 -16 -15 -16 -8 0 -15 -7 -15 -15 0 -8 -7 -15
-15 -15 -8 0 -15 -6 -15 -14 0 -23 -31 -29 -37 -6 -3 11 -12 20 -19 20 -8 0
-14 6 -14 14 0 7 -9 16 -20 19 -11 3 -20 12 -20 21 0 9 -7 16 -15 16 -8 0 -15
-4 -15 -9 0 -14 -45 -61 -59 -61 -6 0 -11 -7 -11 -15 0 -8 -7 -15 -15 -15 -8
0 -15 -6 -15 -14 0 -8 7 -16 15 -20 8 -3 15 -12 15 -21 0 -8 4 -15 9 -15 14 0
61 -45 61 -59 0 -6 7 -11 15 -11 8 0 15 7 15 15 0 8 5 15 11 15 14 0 59 47 59
61 0 17 25 9 48 -15 12 -13 22 -29 22 -35 0 -6 5 -11 10 -11 13 0 60 -49 60
-61 0 -5 7 -9 15 -9 8 0 15 -7 15 -15 0 -8 7 -15 16 -15 9 0 18 -9 21 -20 3
-11 10 -17 15 -14 5 3 12 -3 15 -15 3 -12 12 -21 19 -21 8 0 14 -6 14 -14 0
-8 9 -18 20 -21 11 -3 20 -13 20 -21 0 -8 7 -14 15 -14 8 0 15 -4 15 -10 0
-12 48 -60 60 -60 6 0 10 -5 10 -11 0 -5 22 -32 50 -58 27 -26 50 -53 50 -60
0 -6 6 -11 14 -11 8 0 16 -7 20 -15 3 -8 12 -15 21 -15 8 0 15 7 15 15 0 8 7
15 15 15 8 0 15 7 15 15 0 8 9 15 20 15 17 0 20 -7 20 -51 l0 -50 48 3 c44 3
47 5 48 32 1 20 -4 30 -17 33 -11 3 -19 11 -19 19 0 7 -12 14 -27 16 -30 3
-47 38 -19 38 9 0 16 6 16 14 0 7 9 16 20 19 11 3 20 12 20 21 0 9 7 16 15 16
8 0 15 7 15 15 0 8 6 15 14 15 8 0 16 7 20 15 3 8 12 15 20 15 7 0 16 9 19 20
10 39 27 20 27 -30 0 -54 -3 -52 68 -52 18 0 35 2 39 5 10 11 -7 57 -22 57 -8
0 -15 7 -15 15 0 8 -14 18 -32 23 -32 8 -51 32 -26 32 7 0 26 16 42 35 16 19
35 35 43 35 7 0 13 4 13 9 0 14 45 61 59 61 6 0 11 7 11 15 0 8 7 15 15 15 11
0 15 -12 15 -51 l0 -50 53 3 c48 3 52 5 49 26 -4 30 -42 69 -71 74 -31 4 -38
24 -11 31 11 3 20 12 20 21 0 23 27 20 33 -4 3 -11 12 -20 21 -20 9 0 16 -7
16 -15 0 -8 7 -15 15 -15 8 0 15 -7 15 -15 0 -23 18 -18 50 15 16 17 34 30 40
30 5 0 10 7 10 16 0 9 9 18 20 21 11 3 20 11 20 18 0 7 -9 15 -20 18 -11 3
-20 12 -20 21 0 9 -7 16 -15 16 -8 0 -15 7 -15 15 0 8 -6 15 -14 15 -7 0 -16
9 -19 20 -6 23 -37 17 -37 -6 0 -8 -7 -14 -15 -14 -8 0 -15 -7 -15 -15 0 -8
-8 -15 -19 -15 -11 0 -21 -9 -24 -21 -6 -23 -27 -17 -27 7 0 8 -6 14 -12 14
-16 0 -58 44 -58 59 0 6 -4 11 -9 11 -17 0 -63 49 -56 59 3 6 19 11 36 11 19
0 29 5 29 15 0 8 6 15 14 15 18 0 27 60 10 67 -6 2 -29 3 -50 1 -39 -3 -39 -3
-40 -48 -1 -33 -5 -46 -17 -48 -10 -2 -17 3 -17 11 0 8 -9 17 -21 20 -12 3
-18 10 -14 17 4 7 -2 14 -14 17 -12 3 -21 12 -21 19 0 8 -7 14 -15 14 -8 0
-15 9 -15 20 0 11 -3 19 -7 19 -21 -3 -33 2 -33 16 0 8 -7 15 -16 15 -25 0
-11 33 16 37 14 2 30 10 36 18 6 8 16 15 23 15 6 0 11 13 11 30 0 32 -24 45
-71 38 -21 -3 -24 -9 -27 -50 -2 -27 -7 -48 -13 -48 -12 0 -89 77 -89 90 0 6
-5 10 -11 10 -6 0 -25 16 -43 35 -39 41 -42 42 -49 14z m-71 -204 c4 -8 12
-15 20 -15 8 0 14 -7 14 -15 0 -9 7 -18 15 -21 17 -7 20 -59 4 -69 -6 -4 -13
2 -16 14 -3 12 -12 21 -19 21 -8 0 -17 7 -20 15 -4 8 -12 15 -20 15 -8 0 -14
-7 -14 -15 0 -8 -7 -15 -15 -15 -10 0 -15 11 -15 35 0 24 5 35 15 35 8 0 15 7
15 15 0 8 7 15 15 15 9 0 18 -7 21 -15z m204 0 c0 -8 7 -15 15 -15 10 0 15
-11 15 -35 0 -24 -5 -35 -15 -35 -8 0 -15 7 -15 15 0 8 -7 15 -15 15 -9 0 -18
-7 -21 -15 -4 -8 -12 -15 -19 -15 -7 0 -15 -9 -18 -21 -8 -29 -27 -14 -27 22
0 18 5 29 14 29 7 0 16 9 19 20 3 11 12 20 21 20 9 0 16 7 16 15 0 8 7 15 15
15 8 0 15 -7 15 -15z m-382 -202 c-2 -10 -10 -17 -16 -15 -7 1 -12 -7 -12 -18
0 -11 7 -20 15 -20 8 0 15 -7 15 -15 0 -8 6 -15 14 -15 15 0 28 -24 19 -34 -4
-3 -19 -6 -34 -6 -18 0 -28 6 -32 20 -3 11 -12 20 -21 20 -9 0 -16 7 -16 15 0
8 -7 15 -15 15 -8 0 -15 9 -15 20 0 11 6 20 14 20 8 0 16 7 20 15 3 9 18 15
36 15 25 0 31 -4 28 -17z m600 -18 c24 -25 22 -45 -4 -45 -8 0 -14 -7 -14 -15
0 -8 -7 -15 -15 -15 -8 0 -15 -7 -15 -15 0 -10 -11 -15 -35 -15 -24 0 -35 5
-35 15 0 8 4 15 9 15 14 0 61 45 61 59 0 6 -7 11 -15 11 -8 0 -15 7 -15 15 0
24 52 18 78 -10z m-568 -155 c0 -11 -7 -20 -15 -20 -8 0 -15 -6 -15 -14 0 -7
-9 -16 -20 -19 -26 -7 -26 -23 1 -30 26 -7 20 -31 -9 -35 -14 -2 -33 8 -53 28
-31 30 -31 31 -10 37 11 3 21 11 21 18 0 7 9 15 20 18 11 3 20 12 20 21 0 11
9 16 30 16 23 0 30 -4 30 -20z m520 -5 c0 -8 7 -15 15 -15 8 0 15 -7 15 -15 0
-8 5 -15 10 -15 6 0 13 -6 16 -14 8 -22 -32 -56 -66 -56 -35 0 -39 14 -8 31
l22 12 -22 15 c-12 8 -22 21 -22 28 0 8 -7 14 -15 14 -8 0 -15 7 -15 15 0 10
11 15 35 15 24 0 35 -5 35 -15z m-312 -219 c3 -21 -1 -29 -17 -33 -12 -3 -21
-12 -21 -19 0 -8 -7 -14 -15 -14 -8 0 -15 -7 -15 -15 0 -8 -9 -15 -20 -15 -11
0 -20 7 -20 15 0 8 -7 15 -16 15 -11 0 -14 8 -12 32 3 37 23 48 31 18 7 -26
27 -26 34 0 3 11 11 20 18 20 7 0 16 7 19 16 9 24 31 11 34 -20z m78 12 c13
-13 24 -29 24 -35 0 -18 27 -16 34 2 3 8 12 15 21 15 24 0 20 -57 -5 -65 -11
-3 -20 -13 -20 -21 0 -23 -13 -17 -44 21 -16 19 -35 35 -43 35 -8 0 -13 13
-13 35 0 41 13 44 46 13z"/>
<path d="M502 11138 c3 -60 4 -63 31 -66 21 -3 27 1 27 17 0 36 12 51 40 51
20 0 31 6 35 20 10 33 -3 40 -71 40 l-65 0 3 -62z"/>
<path d="M1490 11000 c0 -49 0 -50 31 -50 22 0 32 5 36 20 3 11 11 20 18 20
14 0 24 28 18 48 -3 7 -23 12 -54 12 l-49 0 0 -50z"/>
<path d="M600 10840 l0 -50 50 0 c47 0 50 1 50 26 0 33 -42 74 -76 74 -22 0
-24 -4 -24 -50z"/>
<path d="M1696 10819 c-13 -66 -9 -79 25 -79 22 0 32 5 36 19 3 11 13 21 24
24 24 6 26 52 3 61 -9 3 -30 6 -49 6 -28 0 -33 -4 -39 -31z"/>
<path d="M1590 10421 l0 -51 50 0 c46 0 50 2 50 25 0 14 -8 29 -20 35 -11 6
-19 16 -17 23 1 7 -12 13 -30 15 l-33 3 0 -50z"/>
<path d="M800 10290 c0 -48 1 -50 29 -50 20 0 30 6 34 20 3 11 12 20 21 20 11
0 16 9 16 30 0 29 -1 30 -50 30 l-50 0 0 -50z"/>
<path d="M1382 10218 l3 -53 48 -3 c47 -3 47 -3 47 28 0 18 -6 33 -15 36 -8 4
-15 12 -15 19 0 7 -10 15 -22 19 -46 12 -49 9 -46 -46z"/>
<path d="M1000 10080 c0 -49 0 -50 31 -50 22 0 32 5 36 20 3 11 11 20 18 20
14 0 27 38 19 52 -3 4 -27 8 -55 8 l-49 0 0 -50z"/>
<path d="M1310 9770 c0 -49 1 -50 30 -50 20 0 30 5 30 15 0 8 9 19 20 25 12 6
20 21 20 35 0 23 -4 25 -50 25 l-50 0 0 -50z"/>
<path d="M1510 9560 c0 -45 2 -50 23 -50 32 1 77 44 77 75 0 23 -3 25 -50 25
l-50 0 0 -50z"/>
<path d="M1508 9183 c-2 -10 -2 -33 0 -50 4 -32 6 -33 48 -33 23 0 45 3 47 8
10 14 -6 62 -19 62 -8 0 -14 7 -14 15 0 22 -58 20 -62 -2z"/>
<path d="M1300 8950 l0 -50 50 0 c44 0 50 3 50 21 0 27 -52 79 -79 79 -18 0
-21 -6 -21 -50z"/>
<path d="M1267 8653 c-4 -3 -7 -26 -7 -50 0 -32 -4 -43 -15 -43 -9 0 -18 7
-21 15 -4 8 -12 15 -20 15 -8 0 -14 7 -14 15 0 23 -18 18 -50 -15 -16 -16 -34
-30 -40 -30 -5 0 -10 -7 -10 -16 0 -9 -9 -18 -20 -21 -11 -3 -20 -12 -20 -19
0 -8 -6 -14 -14 -14 -7 0 -16 -9 -19 -20 -3 -11 -12 -20 -21 -20 -9 0 -16 -7
-16 -15 0 -8 -7 -15 -15 -15 -8 0 -15 -7 -15 -15 0 -8 -7 -15 -16 -15 -9 0
-18 -9 -21 -20 -3 -11 -12 -20 -19 -20 -8 0 -14 -7 -14 -15 0 -8 -6 -15 -14
-15 -8 0 -18 -9 -21 -20 -3 -11 -12 -20 -18 -20 -7 -1 -23 -14 -37 -30 -13
-17 -30 -30 -37 -30 -7 0 -13 -5 -13 -11 0 -14 -47 -59 -61 -59 -5 0 -9 -7 -9
-15 0 -8 -7 -15 -15 -15 -8 0 -15 -6 -15 -14 0 -27 -21 -28 -46 -1 -13 14 -24
30 -24 34 0 5 -9 11 -20 14 -11 3 -20 12 -20 21 0 9 -7 16 -15 16 -8 0 -15 -7
-15 -16 0 -18 -38 -53 -57 -54 -7 0 -13 -6 -13 -14 0 -7 -10 -21 -22 -29 l-23
-16 23 -7 c12 -3 22 -11 22 -17 0 -12 77 -87 90 -87 6 0 10 7 10 15 0 8 7 15
15 15 9 0 18 7 21 15 4 8 12 15 19 15 7 0 15 9 18 20 3 11 10 20 17 20 7 0 14
-9 17 -20 3 -11 12 -20 19 -20 8 0 14 -7 14 -15 0 -8 7 -15 15 -15 8 0 15 -5
15 -11 0 -14 47 -59 61 -59 5 0 9 -5 9 -11 0 -14 47 -59 61 -59 5 0 9 -5 9
-11 0 -6 38 -48 85 -94 47 -46 85 -88 85 -94 0 -6 7 -11 15 -11 8 0 15 -6 15
-14 0 -7 9 -16 20 -19 11 -3 20 -12 20 -21 0 -9 7 -16 15 -16 8 0 15 -7 15
-15 0 -8 6 -15 14 -15 8 0 16 -7 20 -15 3 -8 12 -15 21 -15 8 0 15 7 15 15 0
8 6 15 14 15 8 0 16 7 20 15 3 8 12 15 21 15 8 0 15 4 15 9 0 14 45 61 59 61
6 0 11 7 11 15 0 8 7 15 15 15 11 0 15 -12 15 -50 l0 -50 50 0 c46 0 50 2 50
24 0 31 -38 73 -69 78 -31 4 -39 28 -12 35 12 3 21 12 21 19 0 8 7 14 15 14 8
0 15 7 15 15 0 8 7 15 14 15 11 0 16 -14 18 -47 l3 -48 50 0 c47 0 50 2 53 26
2 20 -2 28 -17 32 -12 3 -21 12 -21 21 0 9 -8 16 -18 16 -10 0 -27 7 -38 15
-19 14 -19 15 4 21 12 3 22 13 22 20 0 8 7 14 15 14 8 0 15 7 15 15 0 8 9 15
19 15 17 0 20 -8 23 -47 l3 -48 48 -3 c45 -3 47 -2 47 24 0 30 -38 71 -75 80
-24 6 -36 34 -14 34 5 0 32 23 58 50 26 28 53 50 58 50 6 0 13 9 16 21 6 23
27 17 27 -7 0 -8 6 -14 13 -14 15 0 57 -44 57 -59 0 -19 32 -12 37 9 3 11 9
20 13 20 5 0 27 18 50 40 l41 40 -50 49 c-28 27 -51 54 -51 60 0 6 -9 11 -20
11 -11 0 -20 -4 -20 -9 0 -14 -45 -61 -59 -61 -6 0 -11 -7 -11 -15 0 -8 -7
-15 -15 -15 -8 0 -15 6 -15 13 0 7 -9 18 -20 25 -27 16 -17 32 19 32 20 0 30
6 34 20 3 11 12 20 21 20 11 0 16 9 16 30 0 29 -1 30 -49 30 l-48 0 -7 -50
c-5 -34 -11 -50 -21 -50 -8 0 -15 4 -15 10 0 5 -29 39 -65 75 -36 35 -65 68
-65 73 0 6 -9 12 -21 15 -31 8 -18 31 19 35 20 2 32 9 32 18 0 8 6 14 14 14
15 0 30 45 21 60 -4 6 -28 10 -56 10 l-49 0 0 -50 c0 -38 -4 -50 -15 -50 -8 0
-15 7 -15 15 0 8 -6 15 -12 15 -16 0 -58 44 -58 59 0 6 -6 11 -14 11 -7 0 -16
9 -19 20 -3 11 -12 20 -21 20 -9 0 -16 7 -16 15 0 8 -7 15 -16 15 -25 0 -12
33 16 37 13 2 28 10 33 18 4 8 15 15 22 15 21 0 20 56 -1 64 -21 8 -69 8 -77
-1z m-171 -259 c13 -14 24 -29 24 -35 0 -5 7 -9 15 -9 10 0 15 -11 15 -35 0
-39 -24 -50 -33 -15 -3 11 -12 20 -21 20 -9 0 -16 7 -16 15 0 8 -7 15 -15 15
-8 0 -15 -7 -15 -15 0 -8 -7 -15 -15 -15 -10 0 -15 10 -15 30 0 18 6 33 15 36
8 4 15 12 15 20 0 22 20 17 46 -12z m224 -59 c-10 -26 -30 -26 -30 1 0 8 -7
14 -15 14 -8 0 -15 -6 -15 -14 0 -7 -9 -16 -20 -19 -11 -3 -20 -12 -20 -21 0
-9 -7 -16 -15 -16 -10 0 -15 11 -15 35 0 24 5 35 15 35 8 0 15 7 15 15 0 8 7
15 15 15 8 0 19 9 25 20 11 20 12 20 41 -9 25 -26 28 -33 19 -56z m-412 -138
c2 -10 -3 -17 -12 -17 -25 0 -19 -19 19 -54 38 -36 36 -46 -7 -46 -18 0 -28 5
-28 15 0 8 -7 15 -16 15 -9 0 -18 9 -21 20 -3 11 -12 20 -19 20 -8 0 -14 7
-14 15 0 8 6 15 14 15 7 0 16 9 19 19 6 26 60 24 65 -2z m585 -4 c-2 -7 0 -13
5 -13 4 0 14 -4 22 -10 12 -7 9 -13 -13 -34 -16 -14 -32 -26 -36 -26 -5 0 -11
-9 -14 -21 -4 -16 -12 -20 -33 -17 -34 4 -44 27 -15 35 12 3 21 12 21 19 0 8
7 14 15 14 8 0 15 7 15 15 0 9 -7 18 -15 21 -8 4 -15 13 -15 21 0 10 9 13 33
11 19 -2 31 -8 30 -15z m-556 -160 c5 -13 -31 -53 -47 -53 -5 0 -10 -9 -10
-20 0 -11 7 -20 15 -20 8 0 15 -7 15 -15 0 -10 -11 -15 -35 -15 -24 0 -35 5
-35 15 0 8 -7 15 -15 15 -8 0 -15 9 -15 20 0 11 7 20 15 20 8 0 15 6 15 14 0
7 9 16 20 19 11 3 20 11 20 19 0 17 52 18 57 1z m520 -13 c3 -11 9 -20 14 -20
4 0 20 -11 34 -24 27 -25 26 -46 -1 -46 -8 0 -14 -7 -14 -15 0 -10 -10 -15
-28 -15 -40 0 -47 11 -20 32 l23 17 -37 34 c-46 41 -48 57 -7 57 22 0 32 -5
36 -20z m-307 -221 c0 -20 -5 -29 -16 -29 -9 0 -18 -9 -21 -20 -3 -11 -10 -20
-16 -20 -5 0 -15 -8 -22 -17 -12 -16 -15 -15 -39 7 -29 28 -36 80 -11 80 8 0
15 -7 15 -15 0 -8 7 -15 15 -15 9 0 18 7 21 15 4 8 12 15 19 15 7 0 15 9 18
20 8 31 37 14 37 -21z m70 15 c0 -8 7 -14 15 -14 8 0 15 -7 15 -15 0 -8 6 -15
14 -15 8 0 16 7 20 15 3 8 12 15 21 15 25 0 18 -50 -11 -76 -29 -28 -44 -30
-44 -9 0 8 -6 15 -14 15 -7 0 -16 9 -19 20 -3 11 -12 20 -21 20 -11 0 -16 9
-16 28 0 16 3 31 6 35 10 9 34 -4 34 -19z"/>
<path d="M1360 8499 l0 -51 30 5 c38 8 70 40 70 72 0 23 -3 25 -50 25 l-50 0
0 -51z"/>
<path d="M780 8440 l0 -50 50 0 c46 0 50 2 50 25 0 31 -44 75 -75 75 -23 0
-25 -4 -25 -50z"/>
<path d="M670 8341 c0 -54 6 -59 70 -57 32 1 35 4 33 28 -2 34 -47 78 -79 78
-22 0 -24 -4 -24 -49z"/>
<path d="M1570 8327 c0 -14 -3 -39 -7 -57 -6 -33 -6 -33 25 -27 40 8 73 41 75
74 2 24 -2 26 -45 30 -45 4 -48 3 -48 -20z"/>
<path d="M1662 7918 l3 -53 44 -3 c25 -2 47 2 51 8 11 17 -1 60 -16 60 -8 0
-14 6 -14 14 0 15 -21 26 -51 26 -18 0 -20 -6 -17 -52z"/>
<path d="M670 7790 c0 -48 1 -50 29 -50 20 0 30 6 34 20 3 11 12 20 21 20 11
0 16 9 16 30 0 29 -1 30 -50 30 l-50 0 0 -50z"/>
<path d="M870 7580 c0 -46 2 -50 25 -50 31 0 75 44 75 75 0 23 -4 25 -50 25
l-50 0 0 -50z"/>
<path d="M1250 7510 l0 -50 50 0 c48 0 50 1 50 29 0 20 -6 30 -20 34 -11 3
-20 11 -20 19 0 8 -12 15 -30 16 -30 2 -30 2 -30 -48z"/>
<path d="M1077 7393 c-11 -61 -9 -73 12 -73 30 0 51 11 51 26 0 8 6 14 14 14
13 0 32 47 23 57 -3 2 -25 6 -50 9 l-44 5 -6 -38z"/>
<path d="M1180 7271 c0 -50 1 -51 30 -51 17 0 30 5 30 13 0 7 9 18 21 25 13 8
19 21 17 35 -3 19 -10 22 -50 25 l-48 3 0 -50z"/>
<path d="M1413 7112 c-32 -3 -33 -4 -33 -53 0 -42 3 -49 20 -49 11 0 28 9 37
20 10 11 23 20 30 20 8 0 13 12 13 29 0 32 -14 38 -67 33z"/>
<path d="M1480 6960 c0 -46 2 -50 25 -50 31 0 75 44 75 75 0 23 -4 25 -50 25
l-50 0 0 -50z"/>
<path d="M1580 6650 l0 -50 50 0 c49 0 50 1 50 30 0 20 -5 30 -15 30 -8 0 -19
9 -25 20 -6 12 -21 20 -35 20 -23 0 -25 -4 -25 -50z"/>
<path d="M1372 6448 l3 -53 46 -3 c34 -2 48 1 52 12 8 21 -3 56 -19 56 -8 0
-14 6 -14 14 0 7 -10 16 -22 20 -46 12 -49 9 -46 -46z"/>
<path d="M1237 6044 c-4 -4 -7 -27 -7 -51 0 -41 1 -43 29 -43 20 0 30 6 34 20
3 11 13 20 22 20 12 0 15 7 13 28 -3 24 -8 27 -43 30 -23 2 -44 0 -48 -4z"/>
<path d="M1130 6005 c0 -8 -7 -15 -16 -15 -9 0 -18 -9 -21 -20 -3 -11 -12 -20
-19 -20 -8 0 -14 -7 -14 -15 0 -8 -5 -15 -11 -15 -14 0 -59 -47 -59 -61 0 -5
-7 -9 -15 -9 -9 0 -18 -7 -21 -15 -4 -8 -12 -15 -20 -15 -8 0 -14 -5 -14 -11
0 -14 -47 -59 -61 -59 -5 0 -9 -4 -9 -9 0 -14 -45 -61 -59 -61 -6 0 -11 -6
-11 -14 0 -7 -9 -16 -20 -19 -11 -3 -20 -12 -20 -21 0 -9 -7 -16 -15 -16 -8 0
-15 -7 -15 -15 0 -8 -4 -15 -9 -15 -14 0 -61 -45 -61 -59 0 -6 -7 -11 -15 -11
-8 0 -15 -7 -15 -15 0 -8 -9 -15 -20 -15 -11 0 -20 5 -20 10 0 13 -77 90 -90
90 -5 0 -10 -7 -10 -15 0 -8 -6 -15 -14 -15 -8 0 -18 -9 -21 -20 -4 -11 -11
-18 -16 -14 -6 3 -13 -3 -16 -15 -3 -12 -12 -21 -19 -21 -9 0 -14 -11 -14 -30
0 -20 5 -30 15 -30 8 0 15 -7 15 -15 0 -8 6 -15 14 -15 7 0 16 -9 19 -20 3
-11 12 -20 21 -20 9 0 16 -4 16 -10 0 -5 7 -10 15 -10 8 0 15 5 15 10 0 6 7
10 15 10 8 0 15 5 15 11 0 11 45 59 55 59 10 0 55 -48 55 -59 0 -6 7 -11 15
-11 8 0 15 -7 15 -15 0 -8 6 -15 14 -15 7 0 16 -9 19 -20 3 -11 12 -20 21 -20
9 0 16 -7 16 -15 0 -8 7 -15 15 -15 8 0 15 -7 15 -15 0 -8 7 -15 16 -15 9 0
18 -9 21 -20 3 -11 12 -20 19 -20 8 0 14 -7 14 -15 0 -8 6 -15 13 -15 15 0 57
-44 57 -59 0 -6 4 -11 10 -11 13 0 90 -77 90 -90 0 -5 4 -10 10 -10 13 0 90
-77 90 -90 0 -5 4 -10 9 -10 14 0 61 45 61 59 0 6 7 11 15 11 8 0 15 7 15 15
0 8 9 15 20 15 11 0 20 7 20 15 0 8 7 15 15 15 9 0 15 9 15 21 0 14 5 19 18
17 12 -2 17 -14 18 -38 1 -19 2 -41 3 -47 2 -19 101 -18 101 1 0 23 -52 74
-82 81 -33 8 -36 20 -8 35 11 6 20 17 20 25 0 8 7 15 15 15 8 0 15 7 15 15 0
8 9 15 20 15 11 0 20 7 20 15 0 8 7 15 15 15 8 0 15 9 15 20 0 11 7 20 15 20
8 0 15 7 15 15 0 8 9 15 20 15 11 0 20 4 20 9 0 14 45 61 59 61 6 0 11 7 11
15 0 8 7 15 15 15 8 0 15 9 15 20 0 11 5 20 11 20 7 0 18 8 25 18 13 16 15 16
28 0 7 -10 18 -18 25 -18 6 0 11 -5 11 -11 0 -14 47 -59 61 -59 5 0 9 7 9 15
0 8 7 15 15 15 8 0 15 6 15 13 0 10 50 59 82 78 11 7 -33 59 -51 59 -6 0 -11
7 -11 15 0 8 -6 15 -14 15 -7 0 -16 9 -19 20 -3 11 -10 20 -17 20 -7 0 -14 -9
-17 -20 -3 -11 -12 -20 -19 -20 -8 0 -14 -7 -14 -15 0 -8 -9 -15 -20 -15 -11
0 -20 -7 -20 -15 0 -8 -7 -15 -15 -15 -8 0 -15 7 -15 15 0 8 -7 15 -15 15 -8
0 -15 9 -15 20 0 16 7 20 30 20 32 0 37 9 18 28 -19 19 -48 15 -48 -8 0 -13
-7 -20 -20 -20 -11 0 -20 7 -20 15 0 8 -4 15 -10 15 -12 0 -60 48 -60 60 0 6
-5 10 -10 10 -6 0 -30 19 -53 43 -147 151 -153 161 -98 169 15 2 31 16 42 37
24 44 11 63 -40 59 -35 -3 -36 -4 -39 -50 -2 -27 -7 -48 -13 -48 -12 0 -89 77
-89 90 0 6 -7 10 -15 10 -8 0 -15 7 -15 15 0 8 -7 15 -15 15 -8 0 -19 9 -25
20 -13 24 -30 26 -30 5z m-73 -205 c3 -11 12 -20 19 -20 8 0 14 -7 14 -15 0
-8 7 -15 15 -15 10 0 15 -11 15 -35 0 -24 -5 -35 -15 -35 -8 0 -15 7 -15 15 0
8 -6 15 -14 15 -7 0 -16 9 -19 20 -7 26 -33 26 -40 -1 -8 -29 -27 -14 -27 22
0 18 5 29 14 29 7 0 16 9 19 20 3 11 10 20 17 20 7 0 14 -9 17 -20z m203 -4
c0 -7 9 -16 19 -19 15 -4 19 -12 17 -33 -4 -32 -23 -44 -32 -20 -9 23 -21 20
-54 -14 -36 -37 -50 -38 -50 -4 0 27 36 74 58 74 6 0 12 7 12 15 0 8 7 15 15
15 8 0 15 -6 15 -14z m132 -137 c13 -17 35 -37 51 -45 15 -8 27 -20 27 -26 0
-6 7 -16 17 -23 14 -11 12 -16 -25 -53 -26 -26 -51 -42 -66 -42 -31 0 -40 14
-25 38 9 15 6 28 -15 70 -32 63 -35 112 -6 112 11 0 30 -14 42 -31z m-512 -60
c0 -7 -8 -18 -17 -25 -17 -13 -17 -15 0 -28 9 -7 17 -18 17 -23 0 -6 9 -13 21
-16 28 -7 19 -32 -12 -32 -15 0 -40 16 -66 41 -45 43 -54 64 -28 64 8 0 15 7
15 15 0 10 11 15 35 15 20 0 35 -5 35 -11z m25 -188 c6 -11 -37 -61 -54 -61
-19 0 -12 -27 9 -33 31 -8 14 -37 -21 -37 -20 0 -29 5 -29 16 0 9 -9 18 -20
21 -24 6 -27 33 -4 33 9 0 18 9 21 20 3 11 12 20 19 20 8 0 14 7 14 15 0 17
55 22 65 6z m515 -6 c0 -8 7 -15 15 -15 8 0 15 -7 15 -15 0 -9 7 -18 15 -21 8
-4 15 -10 15 -15 0 -17 -48 -59 -68 -59 -31 0 -39 21 -14 38 l22 15 -35 33
c-44 41 -44 54 0 54 24 0 35 -5 35 -15z m-310 -220 c0 -23 -5 -35 -14 -35 -7
0 -16 -9 -19 -21 -3 -12 -10 -18 -15 -15 -5 3 -12 -3 -15 -14 -6 -22 -37 -28
-37 -7 0 7 -8 17 -18 24 -23 14 -22 57 1 61 10 2 17 -3 17 -12 0 -9 7 -16 15
-16 8 0 15 7 15 15 0 8 9 15 20 15 13 0 20 7 20 20 0 11 7 20 15 20 10 0 15
-11 15 -35z m86 0 c35 -37 54 -44 54 -20 0 8 7 15 15 15 10 0 15 -10 15 -29 0
-16 -6 -31 -15 -35 -8 -3 -15 -12 -15 -21 0 -26 -20 -17 -65 28 -34 35 -42 49
-38 70 3 15 8 27 10 27 3 0 20 -16 39 -35z"/>
<path d="M752 5838 l3 -53 45 0 c40 0 45 3 48 23 4 27 -50 82 -80 82 -17 0
-19 -7 -16 -52z"/>
<path d="M642 5738 l3 -53 44 -3 c24 -2 48 1 53 6 13 13 -1 62 -18 62 -8 0
-14 6 -14 14 0 7 -10 16 -22 20 -46 12 -49 9 -46 -46z"/>
<path d="M1620 5300 l0 -50 50 0 c46 0 50 2 50 24 0 25 -22 51 -33 39 -4 -3
-7 3 -7 15 0 18 -6 22 -30 22 -29 0 -30 -1 -30 -50z"/>
<path d="M1520 5200 l0 -50 50 0 c36 0 50 4 50 14 0 25 -12 46 -26 46 -8 0
-14 6 -14 14 0 14 -21 26 -46 26 -10 0 -14 -14 -14 -50z"/>
<path d="M100 5230 c0 -5 5 -10 10 -10 6 0 10 5 10 10 0 6 -4 10 -10 10 -5 0
-10 -4 -10 -10z"/>
<path d="M1420 5100 l0 -50 44 0 c25 0 47 4 50 8 9 15 -6 52 -20 52 -8 0 -14
6 -14 14 0 12 -28 25 -52 26 -5 0 -8 -22 -8 -50z"/>
<path d="M773 5113 c-32 -4 -33 -5 -33 -54 0 -27 3 -49 8 -49 26 1 51 15 55
32 3 11 10 17 16 14 6 -4 13 5 17 20 6 23 -9 47 -26 42 -3 -1 -20 -3 -37 -5z"/>
<path d="M840 4959 c0 -48 1 -51 23 -45 12 3 25 6 30 6 4 0 7 6 7 14 0 7 9 16
20 19 14 3 20 14 20 31 0 25 -3 26 -50 26 l-50 0 0 -51z"/>
<path d="M1214 4900 c3 -51 15 -62 57 -58 27 2 35 8 37 26 5 30 -36 72 -69 72
-25 0 -27 -3 -25 -40z"/>
<path d="M940 4860 c0 -47 1 -50 26 -50 17 0 28 6 31 20 3 11 14 20 24 20 14
0 19 7 19 30 0 29 -1 30 -50 30 l-50 0 0 -50z"/>
<path d="M1150 4660 c0 -44 2 -50 21 -50 22 0 61 34 72 63 8 22 -13 37 -55 37
l-38 0 0 -50z"/>
<path d="M1362 4502 c-14 -4 -16 -88 -4 -96 15 -9 52 6 52 20 0 8 7 14 15 14
14 0 33 46 23 56 -7 6 -72 11 -86 6z"/>
<path d="M1450 4351 c0 -43 3 -51 18 -51 27 0 84 55 80 77 -2 14 -14 19 -51
21 l-47 3 0 -50z"/>
<path d="M1557 4293 c-4 -3 -7 -26 -7 -50 0 -36 3 -43 19 -43 20 0 51 25 51
41 0 5 6 8 13 7 7 -2 13 9 15 25 3 26 1 27 -41 27 -24 0 -47 -3 -50 -7z"/>
<path d="M1550 4050 l0 -50 50 0 c49 0 50 1 50 30 0 24 -4 30 -21 30 -11 0
-18 4 -14 9 6 11 -26 31 -49 31 -12 0 -16 -11 -16 -50z"/>
<path d="M1250 3740 l0 -50 44 0 c46 0 57 10 48 43 -3 10 -11 16 -18 13 -10
-4 -14 3 -14 19 0 21 -5 25 -30 25 -29 0 -30 -1 -30 -50z"/>
<path d="M1150 3640 l0 -50 51 0 c48 0 51 1 45 23 -3 12 -6 26 -6 31 0 4 -7 6
-15 2 -14 -5 -17 -1 -14 21 1 8 -28 21 -48 22 -9 1 -13 -15 -13 -49z"/>
<path d="M1218 3443 c0 -5 -2 -26 -2 -48 -1 -44 -29 -63 -39 -25 -3 11 -12 20
-21 20 -9 0 -16 7 -16 15 0 8 -5 15 -10 15 -6 0 -13 -7 -16 -15 -4 -8 -12 -15
-20 -15 -8 0 -14 -9 -14 -20 0 -11 -7 -20 -15 -20 -9 0 -18 -7 -21 -15 -4 -8
-12 -15 -20 -15 -8 0 -14 -9 -14 -20 0 -11 -6 -20 -14 -20 -8 0 -16 -7 -20
-15 -3 -8 -12 -15 -21 -15 -8 0 -15 -7 -15 -15 0 -8 -7 -15 -15 -15 -8 0 -15
-7 -15 -15 0 -9 -7 -18 -15 -21 -8 -4 -15 -12 -15 -20 0 -8 -6 -14 -12 -14
-16 0 -58 -44 -58 -59 0 -6 -7 -11 -15 -11 -9 0 -18 -7 -21 -15 -4 -8 -12 -15
-20 -15 -8 0 -14 -9 -14 -20 0 -11 -7 -20 -15 -20 -9 0 -18 -7 -21 -15 -4 -8
-12 -15 -20 -15 -8 0 -14 -9 -14 -20 0 -11 -6 -20 -12 -20 -7 -1 -26 -16 -42
-34 l-30 -33 -43 42 c-24 24 -43 48 -43 54 0 6 -7 11 -15 11 -8 0 -15 -5 -15
-11 0 -14 -47 -59 -61 -59 -5 0 -9 -7 -9 -15 0 -9 -10 -19 -22 -24 l-22 -8 22
-12 c12 -6 22 -18 22 -26 0 -8 4 -15 9 -15 14 0 61 -45 61 -59 0 -6 7 -11 15
-11 8 0 15 5 15 11 0 6 21 31 46 56 42 42 46 44 51 24 3 -12 10 -21 17 -21 6
0 31 -22 56 -50 25 -27 51 -50 57 -50 7 0 13 -6 13 -14 0 -8 7 -16 15 -20 8
-3 15 -12 15 -21 0 -8 5 -15 11 -15 6 0 87 -76 180 -170 92 -93 170 -170 174
-170 3 0 5 6 5 14 0 7 9 16 20 19 11 3 20 13 20 22 0 28 34 13 35 -15 3 -72 2
-70 50 -70 43 0 45 1 45 30 0 20 -5 30 -15 30 -8 0 -15 6 -15 14 0 8 -15 17
-35 20 -38 7 -47 31 -15 39 11 3 20 12 20 21 0 9 7 16 15 16 8 0 15 7 15 16 0
9 7 14 18 12 17 -3 19 -8 21 -66 l1 -33 48 3 c41 3 47 6 44 23 -2 11 -10 25
-18 31 -8 6 -14 16 -14 22 0 7 -12 15 -27 18 -16 4 -31 9 -35 11 -12 6 3 33
18 33 8 0 14 7 14 15 0 8 7 15 15 15 8 0 15 7 15 15 0 8 9 15 20 15 17 0 20
-7 20 -50 l0 -50 50 0 c36 0 50 4 50 14 0 25 -12 46 -25 46 -7 0 -15 9 -18 20
-3 14 -14 20 -31 20 -19 0 -26 5 -26 20 0 11 7 20 15 20 8 0 15 7 15 15 0 8 6
15 14 15 7 0 16 9 19 21 10 37 32 15 37 -37 5 -49 5 -49 44 -52 45 -4 61 8 51
38 -4 12 -9 19 -12 16 -9 -8 -31 18 -26 31 4 9 -5 13 -26 13 -24 0 -31 4 -31
20 0 11 7 20 15 20 8 0 15 7 15 15 0 8 7 15 16 15 9 0 18 9 21 20 9 35 28 16
31 -32 3 -51 14 -59 70 -50 25 3 32 9 32 26 0 29 -10 39 -27 25 -10 -9 -13 -6
-13 15 0 21 -6 28 -30 33 -30 6 -43 33 -15 33 8 0 15 6 15 14 0 23 31 29 37 6
3 -11 12 -20 19 -20 8 0 14 -7 14 -15 0 -8 7 -15 16 -15 9 0 18 -9 21 -20 7
-27 14 -25 47 15 16 19 35 35 43 35 7 0 13 7 13 15 0 7 8 19 18 25 16 10 16
10 0 20 -10 6 -18 18 -18 25 0 8 -6 15 -12 15 -16 0 -58 44 -58 59 0 19 -27
12 -33 -9 -3 -11 -12 -20 -21 -20 -9 0 -16 -7 -16 -15 0 -8 -7 -15 -15 -15 -8
0 -15 -7 -15 -15 0 -8 -9 -15 -20 -15 -11 0 -20 7 -20 15 0 8 -7 15 -15 15 -8
0 -15 7 -15 15 0 8 -7 15 -15 15 -8 0 -15 7 -15 16 0 9 -9 18 -20 21 -11 3
-20 12 -20 19 0 8 -7 14 -15 14 -8 0 -15 9 -15 20 0 16 7 20 30 20 23 0 30 5
30 19 0 10 9 21 21 24 15 4 20 12 17 29 -3 20 -9 23 -48 23 l-45 0 -3 -47 c-3
-40 -6 -48 -23 -48 -10 0 -19 7 -19 15 0 8 -7 15 -15 15 -8 0 -15 6 -15 14 0
8 -7 16 -15 20 -8 3 -15 12 -15 21 0 8 -9 15 -20 15 -11 0 -20 7 -20 15 0 8
-7 15 -15 15 -8 0 -15 4 -15 10 0 12 -48 60 -60 60 -6 0 -10 7 -10 15 0 8 -6
15 -14 15 -7 0 -16 9 -19 20 -3 11 -12 20 -21 20 -28 0 -17 27 14 34 18 3 30
12 30 21 0 8 9 15 20 15 16 0 20 7 20 30 0 29 -2 30 -45 30 -25 0 -46 -3 -47
-7z m-163 -248 c14 -14 25 -30 25 -35 0 -6 7 -10 15 -10 10 0 15 -11 15 -35 0
-24 -5 -35 -15 -35 -8 0 -15 7 -15 15 0 8 -7 15 -16 15 -9 0 -18 9 -21 20 -7
26 -17 25 -35 -2 -17 -26 -38 -17 -34 15 2 17 42 76 53 77 1 0 14 -11 28 -25z
m201 -1 c25 -26 33 -74 13 -74 -7 0 -18 8 -25 17 -11 17 -14 16 -38 -10 -14
-15 -26 -32 -26 -38 0 -12 -27 -12 -35 2 -11 16 4 59 20 59 8 0 15 4 15 9 0 9
41 60 49 61 2 0 14 -11 27 -26z m220 -240 c-3 -8 -10 -14 -16 -14 -5 0 -10 -7
-10 -15 0 -8 -7 -15 -15 -15 -8 0 -15 -7 -15 -15 0 -16 -43 -31 -59 -20 -16 9
-13 35 4 35 8 0 15 6 15 14 0 7 9 16 20 19 11 3 20 10 20 16 0 6 -9 15 -20 21
-28 15 -25 28 8 32 31 4 77 -35 68 -58z m-601 47 c3 -6 -4 -15 -15 -21 -25
-14 -26 -27 0 -35 11 -3 20 -13 20 -21 0 -8 7 -14 16 -14 9 0 14 -7 12 -17 -5
-26 -59 -28 -65 -2 -3 10 -12 19 -19 19 -8 0 -14 6 -14 14 0 7 -9 16 -20 19
-23 6 -27 37 -5 37 9 0 18 7 21 15 7 17 59 21 69 6z m33 -173 c2 -10 -1 -18
-7 -18 -5 0 -22 -12 -38 -26 l-28 -25 23 -18 c27 -20 20 -31 -20 -31 -18 0
-28 5 -28 15 0 8 -6 15 -14 15 -27 0 -28 21 -1 46 14 13 30 24 34 24 5 0 11 8
13 18 7 24 61 24 66 0z m509 2 c3 -11 12 -20 19 -20 8 0 14 -6 14 -14 0 -8 7
-16 15 -20 8 -3 15 -12 15 -21 0 -8 -7 -15 -15 -15 -8 0 -15 -7 -15 -15 0 -10
-11 -15 -35 -15 -39 0 -50 24 -15 33 11 3 20 10 20 17 0 7 -9 14 -20 17 -11 3
-20 12 -20 19 0 8 -7 14 -15 14 -15 0 -21 21 -8 33 15 15 55 7 60 -13z m-173
-185 c-4 -8 -11 -12 -16 -9 -6 4 -5 10 3 15 19 12 19 11 13 -6z m-134 -40 c0
-24 -5 -35 -15 -35 -8 0 -15 -7 -15 -15 0 -8 -7 -15 -15 -15 -8 0 -15 -6 -15
-14 0 -28 -20 -27 -49 2 -22 21 -28 35 -24 55 6 32 18 35 33 7 6 -11 15 -20
19 -20 5 0 11 9 14 20 3 11 12 20 21 20 9 0 16 7 16 15 0 8 7 15 15 15 10 0
15 -11 15 -35z m70 21 c0 -7 9 -16 20 -19 11 -3 20 -12 20 -21 0 -23 21 -20
27 4 7 28 27 20 31 -12 2 -17 -6 -35 -21 -52 l-24 -26 -27 25 c-14 13 -26 28
-26 33 0 5 -9 12 -19 15 -15 4 -19 12 -17 33 5 36 3 34 21 34 8 0 15 -6 15
-14z"/>
<path d="M842 3338 l3 -53 48 -3 c47 -3 47 -3 47 28 0 23 -5 33 -20 37 -11 3
-20 11 -20 18 0 11 -29 24 -53 25 -4 0 -7 -24 -5 -52z"/>
<path d="M1320 3300 c0 -36 4 -50 14 -50 24 0 46 12 41 21 -3 4 4 13 15 19 12
6 20 21 20 35 0 23 -4 25 -45 25 l-45 0 0 -50z"/>
<path d="M1420 3200 c0 -49 1 -50 30 -50 23 0 30 4 30 20 0 11 6 20 14 20 15
0 25 27 19 48 -3 7 -22 12 -49 12 l-44 0 0 -50z"/>
<path d="M1627 3043 c-4 -3 -7 -28 -7 -55 0 -39 3 -48 18 -48 22 0 37 11 45
33 3 9 13 17 22 17 10 0 15 10 15 30 0 29 -2 30 -43 30 -24 0 -47 -3 -50 -7z"/>
<path d="M539 2711 c-1 -17 -2 -39 -3 -48 -2 -25 26 -27 53 -4 13 11 27 21 32
23 4 2 10 14 11 28 3 23 0 25 -44 28 -47 3 -48 3 -49 -27z"/>
<path d="M747 2534 c-4 -4 -7 -27 -7 -51 0 -41 1 -43 30 -43 18 0 30 5 30 13
0 7 9 21 21 30 32 28 21 51 -26 55 -23 2 -44 0 -48 -4z"/>
<path d="M847 2433 c-4 -3 -7 -28 -7 -55 0 -39 3 -48 18 -48 22 0 37 11 45 33
4 10 11 16 16 13 10 -7 21 16 21 45 0 16 -7 19 -43 19 -24 0 -47 -3 -50 -7z"/>
<path d="M940 2280 c0 -43 3 -50 20 -50 11 0 29 9 40 20 11 11 25 20 30 20 6
0 10 14 10 30 0 29 -1 30 -50 30 l-50 0 0 -50z"/>
<path d="M1150 2080 c0 -42 3 -50 19 -50 21 0 69 41 71 61 5 34 -1 39 -45 39
l-45 0 0 -50z"/>
<path d="M1250 1981 c0 -45 2 -51 21 -51 26 0 69 43 72 73 2 19 -4 22 -45 25
l-48 3 0 -50z"/>
<path d="M1357 1924 c-4 -4 -7 -27 -7 -51 0 -37 3 -43 21 -43 27 0 81 55 77
77 -2 13 -14 19 -43 21 -23 2 -44 0 -48 -4z"/>
<path d="M1457 1824 c-11 -11 -8 -92 3 -99 19 -12 52 6 45 23 -3 9 -3 13 1 10
11 -11 46 29 42 49 -2 13 -14 19 -43 21 -23 2 -44 0 -48 -4z"/>
<path d="M1550 1669 c0 -49 1 -51 25 -45 34 9 75 49 75 75 0 19 -6 21 -50 21
l-50 0 0 -51z"/>
<path d="M1352 1268 l3 -53 45 0 c43 0 45 1 45 30 0 26 -3 30 -24 27 -16 -1
-22 2 -18 12 7 17 -11 36 -36 36 -16 0 -18 -7 -15 -52z"/>
<path d="M940 860 l0 -50 50 0 c49 0 50 1 50 30 0 20 -5 30 -15 30 -8 0 -19 9
-25 20 -6 12 -21 20 -35 20 -23 0 -25 -4 -25 -50z"/>
<path d="M1227 868 c-11 -9 -15 -23 -12 -43 2 -16 4 -33 4 -37 1 -5 12 -8 25
-8 15 0 26 7 29 20 3 11 12 20 21 20 21 0 21 46 0 54 -25 9 -49 7 -67 -6z"/>
<path d="M1110 831 c0 -15 -45 -61 -59 -61 -7 0 -9 -5 -6 -11 4 -6 -2 -13 -14
-16 -12 -3 -21 -12 -21 -19 0 -8 -6 -14 -14 -14 -7 0 -16 -9 -19 -20 -3 -11
-12 -20 -21 -20 -9 0 -16 -7 -16 -15 0 -8 -7 -15 -15 -15 -8 0 -15 -6 -15 -12
0 -16 -44 -58 -59 -58 -6 0 -11 -7 -11 -15 0 -8 -7 -15 -15 -15 -8 0 -15 -7
-15 -16 0 -9 -9 -18 -20 -21 -11 -3 -20 -12 -20 -19 0 -8 -6 -14 -14 -14 -7 0
-16 -9 -19 -20 -3 -11 -12 -20 -21 -20 -9 0 -16 -7 -16 -15 0 -8 -7 -15 -15
-15 -8 0 -15 -7 -15 -15 0 -8 -7 -15 -15 -15 -8 0 -15 -5 -15 -11 0 -11 -45
-59 -55 -59 -10 0 -85 78 -85 88 0 7 -7 12 -15 12 -8 0 -15 -4 -15 -10 0 -5
-11 -21 -25 -35 -14 -14 -30 -25 -35 -25 -6 0 -10 -6 -10 -14 0 -7 -10 -17
-22 -20 l-23 -7 22 -16 c13 -8 23 -22 23 -29 0 -8 4 -14 9 -14 14 0 61 -45 61
-59 0 -19 22 -12 27 9 3 11 9 20 14 20 13 0 59 46 59 59 0 18 11 13 46 -24 18
-19 37 -35 43 -35 6 0 11 -5 11 -11 0 -13 147 -159 161 -159 5 0 9 -7 9 -15 0
-12 14 -15 70 -15 56 0 70 3 70 15 0 8 5 15 10 15 6 0 13 -7 16 -15 8 -19 30
-19 38 0 3 8 12 15 21 15 8 0 15 7 15 15 0 8 7 15 15 15 10 0 15 -10 15 -30 0
-31 29 -45 31 -15 1 8 2 21 3 27 2 19 36 22 36 4 0 -9 6 -16 14 -16 8 0 16 -7
20 -15 7 -19 36 -19 36 0 0 8 7 15 15 15 8 0 15 -7 15 -15 0 -12 14 -15 70
-15 56 0 70 3 70 15 0 8 7 15 15 15 8 0 15 7 15 15 0 8 6 15 14 15 7 0 16 9
19 21 10 37 32 15 35 -34 l3 -47 50 0 c42 0 49 3 49 20 0 10 -9 24 -20 30 -11
6 -20 17 -20 24 0 7 -13 16 -30 19 -31 7 -43 37 -15 37 8 0 15 7 15 15 0 8 7
15 16 15 9 0 18 9 21 20 3 11 12 20 19 20 8 0 14 7 14 15 0 8 6 15 14 15 7 0
16 9 19 20 7 26 27 26 34 0 3 -11 12 -20 19 -20 8 0 14 -7 14 -15 0 -8 6 -15
14 -15 7 0 21 -10 29 -23 l16 -22 7 23 c3 12 12 22 19 22 7 0 15 7 19 15 3 8
12 15 21 15 8 0 15 7 15 15 0 9 7 18 15 21 17 7 21 34 5 34 -13 0 -90 77 -90
90 0 6 -7 10 -15 10 -8 0 -15 -6 -15 -14 0 -8 -9 -18 -20 -21 -11 -3 -20 -13
-20 -21 0 -8 -7 -14 -15 -14 -8 0 -15 -7 -15 -15 0 -8 -5 -15 -12 -15 -13 0
-88 76 -88 90 0 6 -6 10 -12 10 -16 0 -58 44 -58 59 0 6 -9 11 -20 11 -11 0
-20 7 -20 15 0 8 -7 15 -15 15 -8 0 -15 8 -15 19 0 11 -9 21 -21 24 -28 7 -17
23 21 30 18 4 30 13 30 22 0 8 6 15 14 15 12 0 25 28 26 53 0 4 -22 7 -50 7
l-50 0 0 -50 c0 -61 -14 -65 -56 -15 -16 19 -35 35 -41 35 -7 0 -13 5 -13 10
0 6 -13 24 -30 40 -16 16 -30 34 -30 40 0 5 -5 10 -11 10 -7 0 -34 23 -60 50
-46 48 -69 61 -69 41z m-54 -217 c13 -14 24 -29 24 -35 0 -5 7 -9 15 -9 10 0
15 -11 15 -35 0 -39 -24 -50 -33 -15 -3 11 -12 20 -21 20 -9 0 -16 7 -16 15 0
8 -7 15 -15 15 -8 0 -15 -7 -15 -15 0 -8 -7 -15 -15 -15 -10 0 -15 10 -15 29
0 16 6 31 15 35 8 3 15 12 15 21 0 23 20 18 46 -11z m200 0 c25 -26 33 -74 13
-74 -7 0 -17 8 -24 17 -12 16 -15 15 -39 -7 -14 -14 -26 -31 -26 -37 0 -15
-26 -17 -35 -3 -9 15 6 60 21 60 8 0 14 4 14 9 0 9 41 60 49 61 2 0 14 -11 27
-26z m-376 -195 c0 -4 -9 -13 -20 -19 -22 -12 -27 -30 -9 -30 14 0 59 -47 59
-61 0 -5 -16 -9 -35 -9 -24 0 -35 5 -35 15 0 8 -6 15 -14 15 -8 0 -17 9 -21
20 -3 11 -11 19 -18 17 -21 -4 -19 30 3 36 11 3 20 11 20 19 0 10 10 13 35 10
19 -2 35 -8 35 -13z m567 2 c3 -11 15 -22 26 -25 l22 -6 -22 -19 c-13 -11 -23
-24 -23 -30 0 -6 -7 -11 -15 -11 -8 0 -15 -7 -15 -15 0 -10 -11 -15 -35 -15
-21 0 -35 5 -35 13 0 15 44 57 59 57 19 0 12 27 -9 33 -39 10 -24 26 33 36 5
0 11 -8 14 -18z m-539 -173 c2 -11 -3 -18 -12 -18 -9 0 -16 -7 -16 -15 0 -8
-6 -15 -14 -15 -25 0 -29 -21 -7 -36 12 -9 19 -20 16 -25 -11 -17 -54 -9 -81
16 l-27 25 27 25 c15 14 31 25 35 25 5 0 11 9 14 21 4 16 12 20 34 17 17 -2
29 -10 31 -20z m509 2 c3 -11 12 -20 19 -20 8 0 14 -7 14 -15 0 -8 6 -15 14
-15 23 0 29 -31 6 -37 -11 -3 -20 -12 -20 -20 0 -10 -9 -13 -32 -11 -31 3 -53
28 -24 28 27 0 28 21 1 46 -14 13 -30 24 -36 24 -10 0 -12 23 -2 33 15 15 55
7 60 -13z"/>
<path d="M1320 719 c0 -48 1 -51 23 -45 12 3 25 6 30 6 4 0 7 5 7 10 0 6 9 19
21 31 29 29 19 44 -34 47 l-47 3 0 -52z"/>
<path d="M1520 520 c0 -42 3 -50 18 -50 27 0 82 53 82 78 0 20 -5 22 -50 22
l-50 0 0 -50z"/>
<path d="M1627 463 c-4 -3 -7 -26 -7 -50 0 -41 1 -43 29 -43 20 0 30 6 34 20
3 11 11 19 19 18 8 -2 14 9 16 30 3 32 3 32 -41 32 -24 0 -47 -3 -50 -7z"/>
<path d="M100 350 c0 -5 5 -10 10 -10 6 0 10 5 10 10 0 6 -4 10 -10 10 -5 0
-10 -4 -10 -10z"/>
<path d="M1620 151 c0 -48 1 -49 33 -53 54 -6 69 1 65 30 -2 19 -8 26 -20 24
-12 -2 -18 4 -18 16 0 20 -18 32 -46 32 -10 0 -14 -13 -14 -49z"/>
<path d="M538 148 c-8 -22 4 -88 16 -88 20 0 39 17 32 29 -5 7 2 11 18 11 14
0 26 3 26 8 0 4 3 17 6 30 6 21 3 22 -44 22 -31 0 -52 -5 -54 -12z"/>
<path d="M640 30 c0 -29 2 -30 45 -30 25 0 45 3 45 8 0 4 3 17 6 30 6 21 3 22
-45 22 -50 0 -51 -1 -51 -30z"/>
</g>
</svg>
